<?xml version="1.0" encoding="windows-1252" standalone="no"?>
<svg xmlns="http://www.w3.org/2000/svg" xmlns:xlink="http://www.w3.org/1999/xlink" contentStyleType="text/css" height="353px" preserveAspectRatio="none" style="width:2216px;height:353px;background:#FFFFFF;" version="1.1" viewBox="0 0 2216 353" width="2216px" zoomAndPan="magnify"><link xmlns="" type="text/css" id="dark-mode" rel="stylesheet" href=""/><style xmlns="" type="text/css" id="dark-mode-custom-style"/><defs/><g><text fill="#000000" font-family="sans-serif" font-size="14" font-weight="bold" lengthAdjust="spacing" textLength="285" x="958.5" y="22.9951">Game Architecture - Class Diagram</text><!--class GameManager--><g id="elem_GameManager"><rect codeLine="7" fill="#F1F1F1" height="113.1875" id="GameManager" rx="3.5" ry="3.5" style="stroke:#181818;stroke-width:0.5;" width="232" x="972" y="44.2969"/><ellipse cx="1032.25" cy="60.2969" fill="#ADD1B2" rx="11" ry="11" style="stroke:#181818;stroke-width:1.0;"/><path d="M1034.5938,55.9688 C1033.6563,55.5313 1033.0625,55.3906 1032.1875,55.3906 C1029.5625,55.3906 1027.5625,57.4688 1027.5625,60.1875 L1027.5625,61.3125 C1027.5625,63.8906 1029.6719,65.7813 1032.5625,65.7813 C1033.7813,65.7813 1034.9375,65.4844 1035.6875,64.9375 C1036.2656,64.5313 1036.5938,64.0781 1036.5938,63.6875 C1036.5938,63.2344 1036.2031,62.8438 1035.7344,62.8438 C1035.5156,62.8438 1035.3125,62.9219 1035.125,63.1094 C1034.6719,63.5938 1034.6719,63.5938 1034.4844,63.6875 C1034.0625,63.9531 1033.375,64.0781 1032.6094,64.0781 C1030.5625,64.0781 1029.2656,62.9844 1029.2656,61.2813 L1029.2656,60.1875 C1029.2656,58.4063 1030.5156,57.0938 1032.25,57.0938 C1032.8281,57.0938 1033.4375,57.25 1033.9063,57.5 C1034.3906,57.7813 1034.5625,58 1034.6563,58.4063 C1034.7188,58.8125 1034.75,58.9375 1034.8906,59.0625 C1035.0313,59.2031 1035.2656,59.3125 1035.4844,59.3125 C1035.75,59.3125 1036.0156,59.1719 1036.1875,58.9531 C1036.2969,58.7969 1036.3281,58.6094 1036.3281,58.1875 L1036.3281,56.7656 C1036.3281,56.3281 1036.3125,56.2031 1036.2188,56.0469 C1036.0625,55.7813 1035.7813,55.6406 1035.4844,55.6406 C1035.1875,55.6406 1034.9844,55.7344 1034.7656,56.0469 L1034.5938,55.9688 Z " fill="#000000"/><text fill="#000000" font-family="sans-serif" font-size="14" lengthAdjust="spacing" textLength="103" x="1052.75" y="65.1436">GameManager</text><line style="stroke:#181818;stroke-width:0.5;" x1="973" x2="1203" y1="76.2969" y2="76.2969"/><rect fill="none" height="6" style="stroke:#C82930;stroke-width:1.0;" width="6" x="980" y="86.9453"/><text fill="#000000" font-family="sans-serif" font-size="14" lengthAdjust="spacing" textLength="133" x="992" y="93.292">state : GameState</text><line style="stroke:#181818;stroke-width:0.5;" x1="973" x2="1203" y1="100.5938" y2="100.5938"/><ellipse cx="983" cy="114.2422" fill="#84BE84" rx="3" ry="3" style="stroke:#038048;stroke-width:1.0;"/><text fill="#000000" font-family="sans-serif" font-size="14" lengthAdjust="spacing" textLength="206" x="992" y="117.5889">setState(state : GameState)</text><ellipse cx="983" cy="130.5391" fill="#84BE84" rx="3" ry="3" style="stroke:#038048;stroke-width:1.0;"/><text fill="#000000" font-family="sans-serif" font-size="14" lengthAdjust="spacing" textLength="147" x="992" y="133.8857">notifyStateChange()</text><rect fill="#F24D5C" height="6" style="stroke:#C82930;stroke-width:1.0;" width="6" x="980" y="143.8359"/><text fill="#000000" font-family="sans-serif" font-size="14" lengthAdjust="spacing" textLength="152" x="992" y="150.1826">handleStateChange()</text></g><!--class DifficultySelector--><g id="elem_DifficultySelector"><rect codeLine="14" fill="#F1F1F1" height="96.8906" id="DifficultySelector" rx="3.5" ry="3.5" style="stroke:#181818;stroke-width:0.5;" width="308" x="7" y="233.2969"/><ellipse cx="93.25" cy="249.2969" fill="#ADD1B2" rx="11" ry="11" style="stroke:#181818;stroke-width:1.0;"/><path d="M95.5938,244.9688 C94.6563,244.5313 94.0625,244.3906 93.1875,244.3906 C90.5625,244.3906 88.5625,246.4688 88.5625,249.1875 L88.5625,250.3125 C88.5625,252.8906 90.6719,254.7813 93.5625,254.7813 C94.7813,254.7813 95.9375,254.4844 96.6875,253.9375 C97.2656,253.5313 97.5938,253.0781 97.5938,252.6875 C97.5938,252.2344 97.2031,251.8438 96.7344,251.8438 C96.5156,251.8438 96.3125,251.9219 96.125,252.1094 C95.6719,252.5938 95.6719,252.5938 95.4844,252.6875 C95.0625,252.9531 94.375,253.0781 93.6094,253.0781 C91.5625,253.0781 90.2656,251.9844 90.2656,250.2813 L90.2656,249.1875 C90.2656,247.4063 91.5156,246.0938 93.25,246.0938 C93.8281,246.0938 94.4375,246.25 94.9063,246.5 C95.3906,246.7813 95.5625,247 95.6563,247.4063 C95.7188,247.8125 95.75,247.9375 95.8906,248.0625 C96.0313,248.2031 96.2656,248.3125 96.4844,248.3125 C96.75,248.3125 97.0156,248.1719 97.1875,247.9531 C97.2969,247.7969 97.3281,247.6094 97.3281,247.1875 L97.3281,245.7656 C97.3281,245.3281 97.3125,245.2031 97.2188,245.0469 C97.0625,244.7813 96.7813,244.6406 96.4844,244.6406 C96.1875,244.6406 95.9844,244.7344 95.7656,245.0469 L95.5938,244.9688 Z " fill="#000000"/><text fill="#000000" font-family="sans-serif" font-size="14" lengthAdjust="spacing" textLength="127" x="113.75" y="254.1436">DifficultySelector</text><line style="stroke:#181818;stroke-width:0.5;" x1="8" x2="314" y1="265.2969" y2="265.2969"/><rect fill="none" height="6" style="stroke:#C82930;stroke-width:1.0;" width="6" x="15" y="275.9453"/><text fill="#000000" font-family="sans-serif" font-size="14" lengthAdjust="spacing" textLength="282" x="27" y="282.292">selectionBalls : DifficultySelectionBall[]</text><line style="stroke:#181818;stroke-width:0.5;" x1="8" x2="314" y1="289.5938" y2="289.5938"/><ellipse cx="18" cy="303.2422" fill="#84BE84" rx="3" ry="3" style="stroke:#038048;stroke-width:1.0;"/><text fill="#000000" font-family="sans-serif" font-size="14" lengthAdjust="spacing" textLength="123" x="27" y="306.5889">disableColliders()</text><ellipse cx="18" cy="319.5391" fill="#84BE84" rx="3" ry="3" style="stroke:#038048;stroke-width:1.0;"/><text fill="#000000" font-family="sans-serif" font-size="14" lengthAdjust="spacing" textLength="263" x="27" y="322.8857">selectDifficulty(difficulty : Difficulty)</text></g><!--class DifficultySelectionBall--><g id="elem_DifficultySelectionBall"><rect codeLine="20" fill="#F1F1F1" height="80.5938" id="DifficultySelectionBall" rx="3.5" ry="3.5" style="stroke:#181818;stroke-width:0.5;" width="205" x="350.5" y="241.2969"/><ellipse cx="371.35" cy="257.2969" fill="#ADD1B2" rx="11" ry="11" style="stroke:#181818;stroke-width:1.0;"/><path d="M373.6938,252.9688 C372.7563,252.5313 372.1625,252.3906 371.2875,252.3906 C368.6625,252.3906 366.6625,254.4688 366.6625,257.1875 L366.6625,258.3125 C366.6625,260.8906 368.7719,262.7813 371.6625,262.7813 C372.8813,262.7813 374.0375,262.4844 374.7875,261.9375 C375.3656,261.5313 375.6938,261.0781 375.6938,260.6875 C375.6938,260.2344 375.3031,259.8438 374.8344,259.8438 C374.6156,259.8438 374.4125,259.9219 374.225,260.1094 C373.7719,260.5938 373.7719,260.5938 373.5844,260.6875 C373.1625,260.9531 372.475,261.0781 371.7094,261.0781 C369.6625,261.0781 368.3656,259.9844 368.3656,258.2813 L368.3656,257.1875 C368.3656,255.4063 369.6156,254.0938 371.35,254.0938 C371.9281,254.0938 372.5375,254.25 373.0063,254.5 C373.4906,254.7813 373.6625,255 373.7563,255.4063 C373.8188,255.8125 373.85,255.9375 373.9906,256.0625 C374.1313,256.2031 374.3656,256.3125 374.5844,256.3125 C374.85,256.3125 375.1156,256.1719 375.2875,255.9531 C375.3969,255.7969 375.4281,255.6094 375.4281,255.1875 L375.4281,253.7656 C375.4281,253.3281 375.4125,253.2031 375.3188,253.0469 C375.1625,252.7813 374.8813,252.6406 374.5844,252.6406 C374.2875,252.6406 374.0844,252.7344 373.8656,253.0469 L373.6938,252.9688 Z " fill="#000000"/><text fill="#000000" font-family="sans-serif" font-size="14" lengthAdjust="spacing" textLength="160" x="386.65" y="262.1436">DifficultySelectionBall</text><line style="stroke:#181818;stroke-width:0.5;" x1="351.5" x2="554.5" y1="273.2969" y2="273.2969"/><rect fill="none" height="6" style="stroke:#C82930;stroke-width:1.0;" width="6" x="358.5" y="283.9453"/><text fill="#000000" font-family="sans-serif" font-size="14" lengthAdjust="spacing" textLength="179" x="370.5" y="290.292">difficultyType : Difficulty</text><line style="stroke:#181818;stroke-width:0.5;" x1="351.5" x2="554.5" y1="297.5938" y2="297.5938"/><ellipse cx="361.5" cy="311.2422" fill="#84BE84" rx="3" ry="3" style="stroke:#038048;stroke-width:1.0;"/><text fill="#000000" font-family="sans-serif" font-size="14" lengthAdjust="spacing" textLength="88" x="370.5" y="314.5889">onCollision()</text></g><!--class InputManager--><g id="elem_InputManager"><rect codeLine="25" fill="#F1F1F1" height="64.2969" id="InputManager" rx="3.5" ry="3.5" style="stroke:#181818;stroke-width:0.5;" width="283" x="653.5" y="68.7969"/><ellipse cx="741.25" cy="84.7969" fill="#ADD1B2" rx="11" ry="11" style="stroke:#181818;stroke-width:1.0;"/><path d="M743.5938,80.4688 C742.6563,80.0313 742.0625,79.8906 741.1875,79.8906 C738.5625,79.8906 736.5625,81.9688 736.5625,84.6875 L736.5625,85.8125 C736.5625,88.3906 738.6719,90.2813 741.5625,90.2813 C742.7813,90.2813 743.9375,89.9844 744.6875,89.4375 C745.2656,89.0313 745.5938,88.5781 745.5938,88.1875 C745.5938,87.7344 745.2031,87.3438 744.7344,87.3438 C744.5156,87.3438 744.3125,87.4219 744.125,87.6094 C743.6719,88.0938 743.6719,88.0938 743.4844,88.1875 C743.0625,88.4531 742.375,88.5781 741.6094,88.5781 C739.5625,88.5781 738.2656,87.4844 738.2656,85.7813 L738.2656,84.6875 C738.2656,82.9063 739.5156,81.5938 741.25,81.5938 C741.8281,81.5938 742.4375,81.75 742.9063,82 C743.3906,82.2813 743.5625,82.5 743.6563,82.9063 C743.7188,83.3125 743.75,83.4375 743.8906,83.5625 C744.0313,83.7031 744.2656,83.8125 744.4844,83.8125 C744.75,83.8125 745.0156,83.6719 745.1875,83.4531 C745.2969,83.2969 745.3281,83.1094 745.3281,82.6875 L745.3281,81.2656 C745.3281,80.8281 745.3125,80.7031 745.2188,80.5469 C745.0625,80.2813 744.7813,80.1406 744.4844,80.1406 C744.1875,80.1406 743.9844,80.2344 743.7656,80.5469 L743.5938,80.4688 Z " fill="#000000"/><text fill="#000000" font-family="sans-serif" font-size="14" lengthAdjust="spacing" textLength="99" x="761.75" y="89.6436">InputManager</text><line style="stroke:#181818;stroke-width:0.5;" x1="654.5" x2="935.5" y1="100.7969" y2="100.7969"/><line style="stroke:#181818;stroke-width:0.5;" x1="654.5" x2="935.5" y1="108.7969" y2="108.7969"/><ellipse cx="664.5" cy="122.4453" fill="#84BE84" rx="3" ry="3" style="stroke:#038048;stroke-width:1.0;"/><text fill="#000000" font-family="sans-serif" font-size="14" lengthAdjust="spacing" textLength="257" x="673.5" y="125.792">handleInput(inputType : InputType)</text></g><!--class UIManager--><g id="elem_UIManager"><rect codeLine="29" fill="#F1F1F1" height="96.8906" id="UIManager" rx="3.5" ry="3.5" style="stroke:#181818;stroke-width:0.5;" width="303" x="590.5" y="233.2969"/><ellipse cx="700.75" cy="249.2969" fill="#ADD1B2" rx="11" ry="11" style="stroke:#181818;stroke-width:1.0;"/><path d="M703.0938,244.9688 C702.1563,244.5313 701.5625,244.3906 700.6875,244.3906 C698.0625,244.3906 696.0625,246.4688 696.0625,249.1875 L696.0625,250.3125 C696.0625,252.8906 698.1719,254.7813 701.0625,254.7813 C702.2813,254.7813 703.4375,254.4844 704.1875,253.9375 C704.7656,253.5313 705.0938,253.0781 705.0938,252.6875 C705.0938,252.2344 704.7031,251.8438 704.2344,251.8438 C704.0156,251.8438 703.8125,251.9219 703.625,252.1094 C703.1719,252.5938 703.1719,252.5938 702.9844,252.6875 C702.5625,252.9531 701.875,253.0781 701.1094,253.0781 C699.0625,253.0781 697.7656,251.9844 697.7656,250.2813 L697.7656,249.1875 C697.7656,247.4063 699.0156,246.0938 700.75,246.0938 C701.3281,246.0938 701.9375,246.25 702.4063,246.5 C702.8906,246.7813 703.0625,247 703.1563,247.4063 C703.2188,247.8125 703.25,247.9375 703.3906,248.0625 C703.5313,248.2031 703.7656,248.3125 703.9844,248.3125 C704.25,248.3125 704.5156,248.1719 704.6875,247.9531 C704.7969,247.7969 704.8281,247.6094 704.8281,247.1875 L704.8281,245.7656 C704.8281,245.3281 704.8125,245.2031 704.7188,245.0469 C704.5625,244.7813 704.2813,244.6406 703.9844,244.6406 C703.6875,244.6406 703.4844,244.7344 703.2656,245.0469 L703.0938,244.9688 Z " fill="#000000"/><text fill="#000000" font-family="sans-serif" font-size="14" lengthAdjust="spacing" textLength="74" x="721.25" y="254.1436">UIManager</text><line style="stroke:#181818;stroke-width:0.5;" x1="591.5" x2="892.5" y1="265.2969" y2="265.2969"/><line style="stroke:#181818;stroke-width:0.5;" x1="591.5" x2="892.5" y1="273.2969" y2="273.2969"/><ellipse cx="601.5" cy="286.9453" fill="#84BE84" rx="3" ry="3" style="stroke:#038048;stroke-width:1.0;"/><text fill="#000000" font-family="sans-serif" font-size="14" lengthAdjust="spacing" textLength="277" x="610.5" y="290.292">updateHighScore(difficulty : Difficulty)</text><ellipse cx="601.5" cy="303.2422" fill="#84BE84" rx="3" ry="3" style="stroke:#038048;stroke-width:1.0;"/><text fill="#000000" font-family="sans-serif" font-size="14" lengthAdjust="spacing" textLength="136" x="610.5" y="306.5889">togglePauseMenu()</text><ellipse cx="601.5" cy="319.5391" fill="#84BE84" rx="3" ry="3" style="stroke:#038048;stroke-width:1.0;"/><text fill="#000000" font-family="sans-serif" font-size="14" lengthAdjust="spacing" textLength="76" x="610.5" y="322.8857">fadeView()</text></g><!--class WaveManager--><g id="elem_WaveManager"><rect codeLine="35" fill="#F1F1F1" height="64.2969" id="WaveManager" rx="3.5" ry="3.5" style="stroke:#181818;stroke-width:0.5;" width="142" x="929" y="249.7969"/><ellipse cx="948.5" cy="265.7969" fill="#ADD1B2" rx="11" ry="11" style="stroke:#181818;stroke-width:1.0;"/><path d="M950.8438,261.4688 C949.9063,261.0313 949.3125,260.8906 948.4375,260.8906 C945.8125,260.8906 943.8125,262.9688 943.8125,265.6875 L943.8125,266.8125 C943.8125,269.3906 945.9219,271.2813 948.8125,271.2813 C950.0313,271.2813 951.1875,270.9844 951.9375,270.4375 C952.5156,270.0313 952.8438,269.5781 952.8438,269.1875 C952.8438,268.7344 952.4531,268.3438 951.9844,268.3438 C951.7656,268.3438 951.5625,268.4219 951.375,268.6094 C950.9219,269.0938 950.9219,269.0938 950.7344,269.1875 C950.3125,269.4531 949.625,269.5781 948.8594,269.5781 C946.8125,269.5781 945.5156,268.4844 945.5156,266.7813 L945.5156,265.6875 C945.5156,263.9063 946.7656,262.5938 948.5,262.5938 C949.0781,262.5938 949.6875,262.75 950.1563,263 C950.6406,263.2813 950.8125,263.5 950.9063,263.9063 C950.9688,264.3125 951,264.4375 951.1406,264.5625 C951.2813,264.7031 951.5156,264.8125 951.7344,264.8125 C952,264.8125 952.2656,264.6719 952.4375,264.4531 C952.5469,264.2969 952.5781,264.1094 952.5781,263.6875 L952.5781,262.2656 C952.5781,261.8281 952.5625,261.7031 952.4688,261.5469 C952.3125,261.2813 952.0313,261.1406 951.7344,261.1406 C951.4375,261.1406 951.2344,261.2344 951.0156,261.5469 L950.8438,261.4688 Z " fill="#000000"/><text fill="#000000" font-family="sans-serif" font-size="14" lengthAdjust="spacing" textLength="100" x="963.5" y="270.6436">WaveManager</text><line style="stroke:#181818;stroke-width:0.5;" x1="930" x2="1070" y1="281.7969" y2="281.7969"/><line style="stroke:#181818;stroke-width:0.5;" x1="930" x2="1070" y1="289.7969" y2="289.7969"/><ellipse cx="940" cy="303.4453" fill="#84BE84" rx="3" ry="3" style="stroke:#038048;stroke-width:1.0;"/><text fill="#000000" font-family="sans-serif" font-size="14" lengthAdjust="spacing" textLength="116" x="949" y="306.792">spawnEnemies()</text></g><!--class CometManager--><g id="elem_CometManager"><rect codeLine="39" fill="#F1F1F1" height="64.2969" id="CometManager" rx="3.5" ry="3.5" style="stroke:#181818;stroke-width:0.5;" width="142" x="1106" y="249.7969"/><ellipse cx="1121" cy="265.7969" fill="#ADD1B2" rx="11" ry="11" style="stroke:#181818;stroke-width:1.0;"/><path d="M1123.3438,261.4688 C1122.4063,261.0313 1121.8125,260.8906 1120.9375,260.8906 C1118.3125,260.8906 1116.3125,262.9688 1116.3125,265.6875 L1116.3125,266.8125 C1116.3125,269.3906 1118.4219,271.2813 1121.3125,271.2813 C1122.5313,271.2813 1123.6875,270.9844 1124.4375,270.4375 C1125.0156,270.0313 1125.3438,269.5781 1125.3438,269.1875 C1125.3438,268.7344 1124.9531,268.3438 1124.4844,268.3438 C1124.2656,268.3438 1124.0625,268.4219 1123.875,268.6094 C1123.4219,269.0938 1123.4219,269.0938 1123.2344,269.1875 C1122.8125,269.4531 1122.125,269.5781 1121.3594,269.5781 C1119.3125,269.5781 1118.0156,268.4844 1118.0156,266.7813 L1118.0156,265.6875 C1118.0156,263.9063 1119.2656,262.5938 1121,262.5938 C1121.5781,262.5938 1122.1875,262.75 1122.6563,263 C1123.1406,263.2813 1123.3125,263.5 1123.4063,263.9063 C1123.4688,264.3125 1123.5,264.4375 1123.6406,264.5625 C1123.7813,264.7031 1124.0156,264.8125 1124.2344,264.8125 C1124.5,264.8125 1124.7656,264.6719 1124.9375,264.4531 C1125.0469,264.2969 1125.0781,264.1094 1125.0781,263.6875 L1125.0781,262.2656 C1125.0781,261.8281 1125.0625,261.7031 1124.9688,261.5469 C1124.8125,261.2813 1124.5313,261.1406 1124.2344,261.1406 C1123.9375,261.1406 1123.7344,261.2344 1123.5156,261.5469 L1123.3438,261.4688 Z " fill="#000000"/><text fill="#000000" font-family="sans-serif" font-size="14" lengthAdjust="spacing" textLength="110" x="1135" y="270.6436">CometManager</text><line style="stroke:#181818;stroke-width:0.5;" x1="1107" x2="1247" y1="281.7969" y2="281.7969"/><line style="stroke:#181818;stroke-width:0.5;" x1="1107" x2="1247" y1="289.7969" y2="289.7969"/><ellipse cx="1117" cy="303.4453" fill="#84BE84" rx="3" ry="3" style="stroke:#038048;stroke-width:1.0;"/><text fill="#000000" font-family="sans-serif" font-size="14" lengthAdjust="spacing" textLength="104" x="1126" y="306.792">spawnComet()</text></g><!--class SceneManager--><g id="elem_SceneManager"><rect codeLine="43" fill="#F1F1F1" height="64.2969" id="SceneManager" rx="3.5" ry="3.5" style="stroke:#181818;stroke-width:0.5;" width="137" x="1283.5" y="249.7969"/><ellipse cx="1298.5" cy="265.7969" fill="#ADD1B2" rx="11" ry="11" style="stroke:#181818;stroke-width:1.0;"/><path d="M1300.8438,261.4688 C1299.9063,261.0313 1299.3125,260.8906 1298.4375,260.8906 C1295.8125,260.8906 1293.8125,262.9688 1293.8125,265.6875 L1293.8125,266.8125 C1293.8125,269.3906 1295.9219,271.2813 1298.8125,271.2813 C1300.0313,271.2813 1301.1875,270.9844 1301.9375,270.4375 C1302.5156,270.0313 1302.8438,269.5781 1302.8438,269.1875 C1302.8438,268.7344 1302.4531,268.3438 1301.9844,268.3438 C1301.7656,268.3438 1301.5625,268.4219 1301.375,268.6094 C1300.9219,269.0938 1300.9219,269.0938 1300.7344,269.1875 C1300.3125,269.4531 1299.625,269.5781 1298.8594,269.5781 C1296.8125,269.5781 1295.5156,268.4844 1295.5156,266.7813 L1295.5156,265.6875 C1295.5156,263.9063 1296.7656,262.5938 1298.5,262.5938 C1299.0781,262.5938 1299.6875,262.75 1300.1563,263 C1300.6406,263.2813 1300.8125,263.5 1300.9063,263.9063 C1300.9688,264.3125 1301,264.4375 1301.1406,264.5625 C1301.2813,264.7031 1301.5156,264.8125 1301.7344,264.8125 C1302,264.8125 1302.2656,264.6719 1302.4375,264.4531 C1302.5469,264.2969 1302.5781,264.1094 1302.5781,263.6875 L1302.5781,262.2656 C1302.5781,261.8281 1302.5625,261.7031 1302.4688,261.5469 C1302.3125,261.2813 1302.0313,261.1406 1301.7344,261.1406 C1301.4375,261.1406 1301.2344,261.2344 1301.0156,261.5469 L1300.8438,261.4688 Z " fill="#000000"/><text fill="#000000" font-family="sans-serif" font-size="14" lengthAdjust="spacing" textLength="105" x="1312.5" y="270.6436">SceneManager</text><line style="stroke:#181818;stroke-width:0.5;" x1="1284.5" x2="1419.5" y1="281.7969" y2="281.7969"/><line style="stroke:#181818;stroke-width:0.5;" x1="1284.5" x2="1419.5" y1="289.7969" y2="289.7969"/><ellipse cx="1294.5" cy="303.4453" fill="#84BE84" rx="3" ry="3" style="stroke:#038048;stroke-width:1.0;"/><text fill="#000000" font-family="sans-serif" font-size="14" lengthAdjust="spacing" textLength="93" x="1303.5" y="306.792">loadSkybox()</text></g><!--class HapticsManager--><g id="elem_HapticsManager"><rect codeLine="47" fill="#F1F1F1" height="64.2969" id="HapticsManager" rx="3.5" ry="3.5" style="stroke:#181818;stroke-width:0.5;" width="459" x="1455.5" y="249.7969"/><ellipse cx="1623.25" cy="265.7969" fill="#ADD1B2" rx="11" ry="11" style="stroke:#181818;stroke-width:1.0;"/><path d="M1625.5938,261.4688 C1624.6563,261.0313 1624.0625,260.8906 1623.1875,260.8906 C1620.5625,260.8906 1618.5625,262.9688 1618.5625,265.6875 L1618.5625,266.8125 C1618.5625,269.3906 1620.6719,271.2813 1623.5625,271.2813 C1624.7813,271.2813 1625.9375,270.9844 1626.6875,270.4375 C1627.2656,270.0313 1627.5938,269.5781 1627.5938,269.1875 C1627.5938,268.7344 1627.2031,268.3438 1626.7344,268.3438 C1626.5156,268.3438 1626.3125,268.4219 1626.125,268.6094 C1625.6719,269.0938 1625.6719,269.0938 1625.4844,269.1875 C1625.0625,269.4531 1624.375,269.5781 1623.6094,269.5781 C1621.5625,269.5781 1620.2656,268.4844 1620.2656,266.7813 L1620.2656,265.6875 C1620.2656,263.9063 1621.5156,262.5938 1623.25,262.5938 C1623.8281,262.5938 1624.4375,262.75 1624.9063,263 C1625.3906,263.2813 1625.5625,263.5 1625.6563,263.9063 C1625.7188,264.3125 1625.75,264.4375 1625.8906,264.5625 C1626.0313,264.7031 1626.2656,264.8125 1626.4844,264.8125 C1626.75,264.8125 1627.0156,264.6719 1627.1875,264.4531 C1627.2969,264.2969 1627.3281,264.1094 1627.3281,263.6875 L1627.3281,262.2656 C1627.3281,261.8281 1627.3125,261.7031 1627.2188,261.5469 C1627.0625,261.2813 1626.7813,261.1406 1626.4844,261.1406 C1626.1875,261.1406 1625.9844,261.2344 1625.7656,261.5469 L1625.5938,261.4688 Z " fill="#000000"/><text fill="#000000" font-family="sans-serif" font-size="14" lengthAdjust="spacing" textLength="115" x="1643.75" y="270.6436">HapticsManager</text><line style="stroke:#181818;stroke-width:0.5;" x1="1456.5" x2="1913.5" y1="281.7969" y2="281.7969"/><line style="stroke:#181818;stroke-width:0.5;" x1="1456.5" x2="1913.5" y1="289.7969" y2="289.7969"/><ellipse cx="1466.5" cy="303.4453" fill="#84BE84" rx="3" ry="3" style="stroke:#038048;stroke-width:1.0;"/><text fill="#000000" font-family="sans-serif" font-size="14" lengthAdjust="spacing" textLength="433" x="1475.5" y="306.792">triggerRumble(hand : Hand, intensity : float, duration : float)</text></g><!--class GameState--><g id="elem_GameState"><rect codeLine="51" fill="#F1F1F1" height="113.1875" id="GameState" rx="3.5" ry="3.5" style="stroke:#181818;stroke-width:0.5;" width="146" x="1930" y="44.2969"/><ellipse cx="1959.4" cy="60.2969" fill="#EB937F" rx="11" ry="11" style="stroke:#181818;stroke-width:1.0;"/><path d="M1958.1969,61.1719 L1959.65,61.1719 L1959.65,61.2813 C1959.65,61.6875 1959.6813,61.8438 1959.7594,62 C1959.9156,62.25 1960.1969,62.4063 1960.4938,62.4063 C1960.7438,62.4063 1961.0094,62.2656 1961.1656,62.0469 C1961.2906,61.8906 1961.3219,61.7344 1961.3219,61.2813 L1961.3219,59.3594 C1961.3219,59.2031 1961.3219,59.1563 1961.3063,59 C1961.2438,58.5313 1960.9313,58.2188 1960.4781,58.2188 C1960.2281,58.2188 1959.9625,58.3594 1959.7906,58.5781 C1959.6813,58.75 1959.65,58.9063 1959.65,59.3594 L1959.65,59.4844 L1958.1969,59.4844 L1958.1969,57.0781 L1962.1813,57.0781 L1962.1813,57.9375 C1962.1813,58.3438 1962.2125,58.5156 1962.2906,58.6719 C1962.4625,58.9219 1962.7438,59.0781 1963.025,59.0781 C1963.2906,59.0781 1963.5563,58.9375 1963.7281,58.7188 C1963.8375,58.5469 1963.8688,58.4063 1963.8688,57.9375 L1963.8688,55.3906 L1956.2438,55.3906 C1955.8063,55.3906 1955.6813,55.4063 1955.525,55.5 C1955.275,55.6563 1955.1188,55.9531 1955.1188,56.2344 C1955.1188,56.5156 1955.2594,56.7656 1955.4781,56.9375 C1955.6344,57.0469 1955.8219,57.0781 1956.2438,57.0781 L1956.4938,57.0781 L1956.4938,63.5938 L1956.2438,63.5938 C1955.8375,63.5938 1955.6813,63.6094 1955.525,63.7188 C1955.275,63.8906 1955.1188,64.1563 1955.1188,64.4531 C1955.1188,64.7188 1955.2594,64.9688 1955.4781,65.125 C1955.6188,65.25 1955.8531,65.2969 1956.2438,65.2969 L1964.2438,65.2969 L1964.2438,62.7188 C1964.2438,62.2813 1964.2125,62.1406 1964.1344,61.9844 C1963.9625,61.7344 1963.6813,61.5781 1963.4,61.5781 C1963.1344,61.5781 1962.8688,61.6875 1962.6969,61.9375 C1962.5875,62.0938 1962.5563,62.2344 1962.5563,62.7188 L1962.5563,63.5938 L1958.1969,63.5938 L1958.1969,61.1719 Z " fill="#000000"/><text fill="#000000" font-family="sans-serif" font-size="14" lengthAdjust="spacing" textLength="82" x="1976.6" y="65.1436">GameState</text><line style="stroke:#181818;stroke-width:0.5;" x1="1931" x2="2075" y1="76.2969" y2="76.2969"/><text fill="#000000" font-family="sans-serif" font-size="14" lengthAdjust="spacing" textLength="134" x="1936" y="93.292">DifficultySelection</text><text fill="#000000" font-family="sans-serif" font-size="14" lengthAdjust="spacing" textLength="29" x="1936" y="109.5889">Play</text><text fill="#000000" font-family="sans-serif" font-size="14" lengthAdjust="spacing" textLength="41" x="1936" y="125.8857">Pause</text><text fill="#000000" font-family="sans-serif" font-size="14" lengthAdjust="spacing" textLength="27" x="1936" y="142.1826">End</text><line style="stroke:#181818;stroke-width:0.5;" x1="1931" x2="2075" y1="149.4844" y2="149.4844"/></g><!--class Difficulty--><g id="elem_Difficulty"><rect codeLine="58" fill="#F1F1F1" height="113.1875" id="Difficulty" rx="3.5" ry="3.5" style="stroke:#181818;stroke-width:0.5;" width="98" x="2111" y="44.2969"/><ellipse cx="2126" cy="60.2969" fill="#EB937F" rx="11" ry="11" style="stroke:#181818;stroke-width:1.0;"/><path d="M2124.7969,61.1719 L2126.25,61.1719 L2126.25,61.2813 C2126.25,61.6875 2126.2813,61.8438 2126.3594,62 C2126.5156,62.25 2126.7969,62.4063 2127.0938,62.4063 C2127.3438,62.4063 2127.6094,62.2656 2127.7656,62.0469 C2127.8906,61.8906 2127.9219,61.7344 2127.9219,61.2813 L2127.9219,59.3594 C2127.9219,59.2031 2127.9219,59.1563 2127.9063,59 C2127.8438,58.5313 2127.5313,58.2188 2127.0781,58.2188 C2126.8281,58.2188 2126.5625,58.3594 2126.3906,58.5781 C2126.2813,58.75 2126.25,58.9063 2126.25,59.3594 L2126.25,59.4844 L2124.7969,59.4844 L2124.7969,57.0781 L2128.7813,57.0781 L2128.7813,57.9375 C2128.7813,58.3438 2128.8125,58.5156 2128.8906,58.6719 C2129.0625,58.9219 2129.3438,59.0781 2129.625,59.0781 C2129.8906,59.0781 2130.1563,58.9375 2130.3281,58.7188 C2130.4375,58.5469 2130.4688,58.4063 2130.4688,57.9375 L2130.4688,55.3906 L2122.8438,55.3906 C2122.4063,55.3906 2122.2813,55.4063 2122.125,55.5 C2121.875,55.6563 2121.7188,55.9531 2121.7188,56.2344 C2121.7188,56.5156 2121.8594,56.7656 2122.0781,56.9375 C2122.2344,57.0469 2122.4219,57.0781 2122.8438,57.0781 L2123.0938,57.0781 L2123.0938,63.5938 L2122.8438,63.5938 C2122.4375,63.5938 2122.2813,63.6094 2122.125,63.7188 C2121.875,63.8906 2121.7188,64.1563 2121.7188,64.4531 C2121.7188,64.7188 2121.8594,64.9688 2122.0781,65.125 C2122.2188,65.25 2122.4531,65.2969 2122.8438,65.2969 L2130.8438,65.2969 L2130.8438,62.7188 C2130.8438,62.2813 2130.8125,62.1406 2130.7344,61.9844 C2130.5625,61.7344 2130.2813,61.5781 2130,61.5781 C2129.7344,61.5781 2129.4688,61.6875 2129.2969,61.9375 C2129.1875,62.0938 2129.1563,62.2344 2129.1563,62.7188 L2129.1563,63.5938 L2124.7969,63.5938 L2124.7969,61.1719 Z " fill="#000000"/><text fill="#000000" font-family="sans-serif" font-size="14" lengthAdjust="spacing" textLength="66" x="2140" y="65.1436">Difficulty</text><line style="stroke:#181818;stroke-width:0.5;" x1="2112" x2="2208" y1="76.2969" y2="76.2969"/><text fill="#000000" font-family="sans-serif" font-size="14" lengthAdjust="spacing" textLength="32" x="2117" y="93.292">Easy</text><text fill="#000000" font-family="sans-serif" font-size="14" lengthAdjust="spacing" textLength="51" x="2117" y="109.5889">Normal</text><text fill="#000000" font-family="sans-serif" font-size="14" lengthAdjust="spacing" textLength="33" x="2117" y="125.8857">Hard</text><text fill="#000000" font-family="sans-serif" font-size="14" lengthAdjust="spacing" textLength="62" x="2117" y="142.1826">Extreme</text><line style="stroke:#181818;stroke-width:0.5;" x1="2112" x2="2208" y1="149.4844" y2="149.4844"/></g><!--class InputType--><g id="elem_InputType"><rect codeLine="65" fill="#F1F1F1" height="129.4844" id="InputType" rx="3.5" ry="3.5" style="stroke:#181818;stroke-width:0.5;" width="106" x="1950" y="217.2969"/><ellipse cx="1965" cy="233.2969" fill="#EB937F" rx="11" ry="11" style="stroke:#181818;stroke-width:1.0;"/><path d="M1963.7969,234.1719 L1965.25,234.1719 L1965.25,234.2813 C1965.25,234.6875 1965.2813,234.8438 1965.3594,235 C1965.5156,235.25 1965.7969,235.4063 1966.0938,235.4063 C1966.3438,235.4063 1966.6094,235.2656 1966.7656,235.0469 C1966.8906,234.8906 1966.9219,234.7344 1966.9219,234.2813 L1966.9219,232.3594 C1966.9219,232.2031 1966.9219,232.1563 1966.9063,232 C1966.8438,231.5313 1966.5313,231.2188 1966.0781,231.2188 C1965.8281,231.2188 1965.5625,231.3594 1965.3906,231.5781 C1965.2813,231.75 1965.25,231.9063 1965.25,232.3594 L1965.25,232.4844 L1963.7969,232.4844 L1963.7969,230.0781 L1967.7813,230.0781 L1967.7813,230.9375 C1967.7813,231.3438 1967.8125,231.5156 1967.8906,231.6719 C1968.0625,231.9219 1968.3438,232.0781 1968.625,232.0781 C1968.8906,232.0781 1969.1563,231.9375 1969.3281,231.7188 C1969.4375,231.5469 1969.4688,231.4063 1969.4688,230.9375 L1969.4688,228.3906 L1961.8438,228.3906 C1961.4063,228.3906 1961.2813,228.4063 1961.125,228.5 C1960.875,228.6563 1960.7188,228.9531 1960.7188,229.2344 C1960.7188,229.5156 1960.8594,229.7656 1961.0781,229.9375 C1961.2344,230.0469 1961.4219,230.0781 1961.8438,230.0781 L1962.0938,230.0781 L1962.0938,236.5938 L1961.8438,236.5938 C1961.4375,236.5938 1961.2813,236.6094 1961.125,236.7188 C1960.875,236.8906 1960.7188,237.1563 1960.7188,237.4531 C1960.7188,237.7188 1960.8594,237.9688 1961.0781,238.125 C1961.2188,238.25 1961.4531,238.2969 1961.8438,238.2969 L1969.8438,238.2969 L1969.8438,235.7188 C1969.8438,235.2813 1969.8125,235.1406 1969.7344,234.9844 C1969.5625,234.7344 1969.2813,234.5781 1969,234.5781 C1968.7344,234.5781 1968.4688,234.6875 1968.2969,234.9375 C1968.1875,235.0938 1968.1563,235.2344 1968.1563,235.7188 L1968.1563,236.5938 L1963.7969,236.5938 L1963.7969,234.1719 Z " fill="#000000"/><text fill="#000000" font-family="sans-serif" font-size="14" lengthAdjust="spacing" textLength="74" x="1979" y="238.1436">InputType</text><line style="stroke:#181818;stroke-width:0.5;" x1="1951" x2="2055" y1="249.2969" y2="249.2969"/><text fill="#000000" font-family="sans-serif" font-size="14" lengthAdjust="spacing" textLength="70" x="1956" y="266.292">NextSong</text><text fill="#000000" font-family="sans-serif" font-size="14" lengthAdjust="spacing" textLength="70" x="1956" y="282.5889">ExitGame</text><text fill="#000000" font-family="sans-serif" font-size="14" lengthAdjust="spacing" textLength="94" x="1956" y="298.8857">VolumeDown</text><text fill="#000000" font-family="sans-serif" font-size="14" lengthAdjust="spacing" textLength="73" x="1956" y="315.1826">VolumeUp</text><text fill="#000000" font-family="sans-serif" font-size="14" lengthAdjust="spacing" textLength="41" x="1956" y="331.4795">Pause</text><line style="stroke:#181818;stroke-width:0.5;" x1="1951" x2="2055" y1="338.7813" y2="338.7813"/></g><!--link GameManager to DifficultySelector--><g id="link_GameManager_DifficultySelector"><path codeLine="73" d="M971.759,152.3209 C965.805,154.1579 959.864,155.8339 954,157.2969 C684.961,224.4179 603.297,155.4349 333,217.2969 C314.848,221.4509 301.6987,225.1152 283.4367,231.2392 " fill="none" id="GameManager-to-DifficultySelector" style="stroke:#454645;stroke-width:1.0;"/><polygon fill="#454645" points="277.748,233.1469,287.5528,234.0779,282.4886,231.5572,285.0092,226.493,277.748,233.1469" style="stroke:#454645;stroke-width:1.0;"/></g><!--link GameManager to UIManager--><g id="link_GameManager_UIManager"><path codeLine="74" d="M980.42,157.4529 C933.504,181.7239 884.3891,207.1329 839.3821,230.4169 " fill="none" id="GameManager-to-UIManager" style="stroke:#454645;stroke-width:1.0;"/><polygon fill="#454645" points="834.053,233.1739,843.8846,232.5912,838.4939,230.8764,840.2087,225.4857,834.053,233.1739" style="stroke:#454645;stroke-width:1.0;"/></g><!--link GameManager to WaveManager--><g id="link_GameManager_WaveManager"><path codeLine="75" d="M1060.64,157.4529 C1045.7,187.8309 1030.4165,218.9241 1017.9465,244.2966 " fill="none" id="GameManager-to-WaveManager" style="stroke:#454645;stroke-width:1.0;"/><polygon fill="#454645" points="1015.3,249.6814,1022.8596,243.3685,1017.5054,245.194,1015.6799,239.8398,1015.3,249.6814" style="stroke:#454645;stroke-width:1.0;"/></g><!--link GameManager to CometManager--><g id="link_GameManager_CometManager"><path codeLine="76" d="M1115.67,157.4529 C1130.78,187.8309 1146.2379,218.9367 1158.8579,244.3092 " fill="none" id="GameManager-to-CometManager" style="stroke:#454645;stroke-width:1.0;"/><polygon fill="#454645" points="1161.53,249.6814,1161.1034,239.8418,1159.3033,245.2046,1153.9405,243.4045,1161.53,249.6814" style="stroke:#454645;stroke-width:1.0;"/></g><!--link GameManager to SceneManager--><g id="link_GameManager_SceneManager"><path codeLine="77" d="M1175.48,157.5899 C1204.21,176.2569 1236.16,197.3859 1265,217.2969 C1279.93,227.6039 1291.1915,235.6677 1305.4415,246.1175 " fill="none" id="GameManager-to-SceneManager" style="stroke:#454645;stroke-width:1.0;"/><polygon fill="#454645" points="1310.28,249.6657,1305.3877,241.1178,1306.2479,246.7089,1300.6569,247.5691,1310.28,249.6657" style="stroke:#454645;stroke-width:1.0;"/></g><!--link GameManager to HapticsManager--><g id="link_GameManager_HapticsManager"><path codeLine="78" d="M1204.17,136.6289 C1313.73,169.4789 1470.6728,216.5347 1575.8528,248.0713 " fill="none" id="GameManager-to-HapticsManager" style="stroke:#454645;stroke-width:1.0;"/><polygon fill="#454645" points="1581.6,249.7945,1574.128,243.3782,1576.8107,248.3585,1571.8304,251.0411,1581.6,249.7945" style="stroke:#454645;stroke-width:1.0;"/></g><!--link InputManager to GameManager--><g id="link_InputManager_GameManager"><path codeLine="79" d="M936.636,100.7969 C948.363,100.7969 954.089,100.7969 965.816,100.7969 " fill="none" id="InputManager-to-GameManager" style="stroke:#454645;stroke-width:1.0;"/><polygon fill="#454645" points="971.816,100.7969,962.816,96.7969,966.816,100.7969,962.816,104.7969,971.816,100.7969" style="stroke:#454645;stroke-width:1.0;"/></g><!--link DifficultySelector to DifficultySelectionBall--><g id="link_DifficultySelector_DifficultySelectionBall"><path codeLine="80" d="M315.27,281.7969 C326.926,281.7969 332.583,281.7969 344.24,281.7969 " fill="none" id="DifficultySelector-to-DifficultySelectionBall" style="stroke:#454645;stroke-width:1.0;"/><polygon fill="#454645" points="350.24,281.7969,341.24,277.7969,345.24,281.7969,341.24,285.7969,350.24,281.7969" style="stroke:#454645;stroke-width:1.0;"/></g><!--SRC=[VLJDRjim3BxxARIRWpOliCE0BIcM75eKyzeTXXqOYt68of8XqKs2OUy-Id0SkNDtiVdpVVmr_O4FsA9wfPq7oqKHNiWgxm8M1HCRL5z1t9zzVI36cdkFQgbM1a9GQuB6GriKTL8Zy1uiDEZLxq89B30mge_9KqLPh3Sg82Ub_CUzI7xhcFRdP5WTm3POBb8qaRN1gVtF9VcQzdkgUyFd2etKwSOQaahEVW5ZWcHxYnnSFt-bv9e2x0okd36aqOToCTGSeLTggKTn4l8_5GrvXhAk_E_d3YSnKa9dKmb1M7cRMzlrd0_vPXXBSfGKdqF0xKNEw4_RARVlj4npGysXgft7zxkAO7PDO_0H-e3tQFjXCdlG-4nupAly0QyuJHGwEDexYorXo94hroBFG9Cz1rOrsZSnZGDTlPntxfG3Dz0nrM4APK-DQD_wLdPRneb9VnjvtIgoZ3PGwdWl8VbMwTv3NDV5ag9Bn-trIqrnPpOiraS3SOLfJlA-itgaNmc9VmSX8X-SRy68i06le_d4NavoP8sBJAG7F77bR9E0nB4Y4P-TwLjSkwCTbQTkh48YvSUvr89RVfgvcLdO-D7CUhDTp_hp3Sy2yitE0gORBIOdi9J57bX06R6O-HUCk7UkyYy0]--></g></svg>