<?xml version="1.0" encoding="windows-1252" standalone="no"?>
<svg xmlns="http://www.w3.org/2000/svg" xmlns:xlink="http://www.w3.org/1999/xlink" contentStyleType="text/css" height="1218px" preserveAspectRatio="none" style="width:1441px;height:1218px;background:#EEEBDC;" version="1.1" viewBox="0 0 1441 1218" width="1441px" zoomAndPan="magnify"><link xmlns="" type="text/css" id="dark-mode" rel="stylesheet" href=""/><style xmlns="" type="text/css" id="dark-mode-custom-style"/><defs/><g><rect fill="#EEEBDC" height="1218" style="stroke:none;stroke-width:1.0;" width="1441" x="0" y="0"/><text fill="#000000" font-family="Courier" font-size="14" font-weight="bold" lengthAdjust="spacing" textLength="208" x="612.5" y="27.9079">Game Flow Sequence Diagram</text><line style="stroke:#565A5C;stroke-width:0.5;stroke-dasharray:5.0,5.0;" x1="52" x2="52" y1="119.5999" y2="1137.2002"/><line style="stroke:#565A5C;stroke-width:0.5;stroke-dasharray:5.0,5.0;" x1="284" x2="284" y1="119.5999" y2="1137.2002"/><line style="stroke:#565A5C;stroke-width:0.5;stroke-dasharray:5.0,5.0;" x1="442" x2="442" y1="119.5999" y2="1137.2002"/><line style="stroke:#565A5C;stroke-width:0.5;stroke-dasharray:5.0,5.0;" x1="696" x2="696" y1="119.5999" y2="1137.2002"/><line style="stroke:#565A5C;stroke-width:0.5;stroke-dasharray:5.0,5.0;" x1="822" x2="822" y1="119.5999" y2="1137.2002"/><line style="stroke:#565A5C;stroke-width:0.5;stroke-dasharray:5.0,5.0;" x1="1084" x2="1084" y1="119.5999" y2="1137.2002"/><line style="stroke:#565A5C;stroke-width:0.5;stroke-dasharray:5.0,5.0;" x1="1212" x2="1212" y1="119.5999" y2="1137.2002"/><text fill="#000000" font-family="Courier" font-size="14" lengthAdjust="spacing" textLength="88" x="5" y="115.7639">GameManager</text><ellipse cx="52" cy="51.2999" fill="#E2E2F0" rx="8" ry="8" style="stroke:#181818;stroke-width:0.5;"/><path d="M52,59.2999 L52,86.2999 M39,67.2999 L65,67.2999 M52,86.2999 L39,101.2999 M52,86.2999 L65,101.2999 " fill="none" style="stroke:#181818;stroke-width:0.5;"/><text fill="#000000" font-family="Courier" font-size="14" lengthAdjust="spacing" textLength="88" x="5" y="1149.1642">GameManager</text><ellipse cx="52" cy="1161.5001" fill="#E2E2F0" rx="8" ry="8" style="stroke:#181818;stroke-width:0.5;"/><path d="M52,1169.5001 L52,1196.5001 M39,1177.5001 L65,1177.5001 M52,1196.5001 L39,1211.5001 M52,1196.5001 L65,1211.5001 " fill="none" style="stroke:#181818;stroke-width:0.5;"/><rect fill="#F3F3F3" height="30.7999" rx="2.5" ry="2.5" style="stroke:#565A5C;stroke-width:0.5;" width="110" x="229" y="87.7999"/><text fill="#000000" font-family="Courier" font-size="14" lengthAdjust="spacing" textLength="96" x="236" y="107.7639">SkyboxLoader</text><rect fill="#F3F3F3" height="30.7999" rx="2.5" ry="2.5" style="stroke:#565A5C;stroke-width:0.5;" width="110" x="229" y="1136.2002"/><text fill="#000000" font-family="Courier" font-size="14" lengthAdjust="spacing" textLength="96" x="236" y="1156.1642">SkyboxLoader</text><rect fill="#F3F3F3" height="30.7999" rx="2.5" ry="2.5" style="stroke:#565A5C;stroke-width:0.5;" width="78" x="403" y="87.7999"/><text fill="#000000" font-family="Courier" font-size="14" lengthAdjust="spacing" textLength="64" x="410" y="107.7639">Blackout</text><rect fill="#F3F3F3" height="30.7999" rx="2.5" ry="2.5" style="stroke:#565A5C;stroke-width:0.5;" width="78" x="403" y="1136.2002"/><text fill="#000000" font-family="Courier" font-size="14" lengthAdjust="spacing" textLength="64" x="410" y="1156.1642">Blackout</text><rect fill="#F3F3F3" height="30.7999" rx="2.5" ry="2.5" style="stroke:#565A5C;stroke-width:0.5;" width="110" x="641" y="87.7999"/><text fill="#000000" font-family="Courier" font-size="14" lengthAdjust="spacing" textLength="96" x="648" y="107.7639">MusicManager</text><rect fill="#F3F3F3" height="30.7999" rx="2.5" ry="2.5" style="stroke:#565A5C;stroke-width:0.5;" width="110" x="641" y="1136.2002"/><text fill="#000000" font-family="Courier" font-size="14" lengthAdjust="spacing" textLength="96" x="648" y="1156.1642">MusicManager</text><rect fill="#F3F3F3" height="30.7999" rx="2.5" ry="2.5" style="stroke:#565A5C;stroke-width:0.5;" width="110" x="767" y="87.7999"/><text fill="#000000" font-family="Courier" font-size="14" lengthAdjust="spacing" textLength="96" x="774" y="107.7639">CometSpawner</text><rect fill="#F3F3F3" height="30.7999" rx="2.5" ry="2.5" style="stroke:#565A5C;stroke-width:0.5;" width="110" x="767" y="1136.2002"/><text fill="#000000" font-family="Courier" font-size="14" lengthAdjust="spacing" textLength="96" x="774" y="1156.1642">CometSpawner</text><rect fill="#F3F3F3" height="30.7999" rx="2.5" ry="2.5" style="stroke:#565A5C;stroke-width:0.5;" width="94" x="1037" y="87.7999"/><text fill="#000000" font-family="Courier" font-size="14" lengthAdjust="spacing" textLength="80" x="1044" y="107.7639">ScoreBoard</text><rect fill="#F3F3F3" height="30.7999" rx="2.5" ry="2.5" style="stroke:#565A5C;stroke-width:0.5;" width="94" x="1037" y="1136.2002"/><text fill="#000000" font-family="Courier" font-size="14" lengthAdjust="spacing" textLength="80" x="1044" y="1156.1642">ScoreBoard</text><rect fill="#F3F3F3" height="30.7999" rx="2.5" ry="2.5" style="stroke:#565A5C;stroke-width:0.5;" width="142" x="1141" y="87.7999"/><text fill="#000000" font-family="Courier" font-size="14" lengthAdjust="spacing" textLength="128" x="1148" y="107.7639">SpaceshipSpawner</text><rect fill="#F3F3F3" height="30.7999" rx="2.5" ry="2.5" style="stroke:#565A5C;stroke-width:0.5;" width="142" x="1141" y="1136.2002"/><text fill="#000000" font-family="Courier" font-size="14" lengthAdjust="spacing" textLength="128" x="1148" y="1156.1642">SpaceshipSpawner</text><line style="stroke:#181818;stroke-width:2.0;" x1="52" x2="94" y1="166.7999" y2="166.7999"/><line style="stroke:#181818;stroke-width:2.0;" x1="94" x2="94" y1="166.7999" y2="179.7999"/><line style="stroke:#181818;stroke-width:2.0;" x1="53" x2="94" y1="179.7999" y2="179.7999"/><polygon fill="#181818" points="63,175.7999,53,179.7999,63,183.7999,59,179.7999" style="stroke:#181818;stroke-width:1.0;"/><text fill="#000000" font-family="Courier" font-size="13" lengthAdjust="spacing" textLength="80" x="59" y="145.6379">Start Game</text><text fill="#000000" font-family="Courier" font-size="13" lengthAdjust="spacing" textLength="168" x="59" y="161.2379">Set State: LoadSkybox</text><rect fill="#EEEEEE" height="3" style="stroke:#EEEEEE;stroke-width:1.0;" width="1434" x="0" y="208.5999"/><line style="stroke:#000000;stroke-width:1.0;" x1="0" x2="1434" y1="208.5999" y2="208.5999"/><line style="stroke:#000000;stroke-width:1.0;" x1="0" x2="1434" y1="211.5999" y2="211.5999"/><rect fill="#EEEEEE" height="23.6" style="stroke:#000000;stroke-width:2.0;" width="102" x="666" y="197.7999"/><text fill="#000000" font-family="Courier" font-size="13" font-weight="bold" lengthAdjust="spacing" textLength="80" x="672" y="213.7859">LoadSkybox</text><polygon fill="#181818" points="272,248.9999,282,252.9999,272,256.9999,276,252.9999" style="stroke:#181818;stroke-width:1.0;"/><line style="stroke:#181818;stroke-width:2.0;" x1="52" x2="278" y1="252.9999" y2="252.9999"/><text fill="#000000" font-family="Courier" font-size="13" lengthAdjust="spacing" textLength="208" x="59" y="247.4379">Notify: Game State Changed</text><line style="stroke:#181818;stroke-width:2.0;" x1="284" x2="326" y1="282.5999" y2="282.5999"/><line style="stroke:#181818;stroke-width:2.0;" x1="326" x2="326" y1="282.5999" y2="295.5999"/><line style="stroke:#181818;stroke-width:2.0;" x1="285" x2="326" y1="295.5999" y2="295.5999"/><polygon fill="#181818" points="295,291.5999,285,295.5999,295,299.5999,291,295.5999" style="stroke:#181818;stroke-width:1.0;"/><text fill="#000000" font-family="Courier" font-size="13" lengthAdjust="spacing" textLength="144" x="291" y="277.0379">Load Random Skybox</text><polygon fill="#181818" points="63,321.1999,53,325.1999,63,329.1999,59,325.1999" style="stroke:#181818;stroke-width:1.0;"/><line style="stroke:#181818;stroke-width:2.0;" x1="57" x2="283" y1="325.1999" y2="325.1999"/><text fill="#000000" font-family="Courier" font-size="13" lengthAdjust="spacing" textLength="128" x="69" y="319.6379">Set State: Start</text><rect fill="#EEEEEE" height="3" style="stroke:#EEEEEE;stroke-width:1.0;" width="1434" x="0" y="353.9999"/><line style="stroke:#000000;stroke-width:1.0;" x1="0" x2="1434" y1="353.9999" y2="353.9999"/><line style="stroke:#000000;stroke-width:1.0;" x1="0" x2="1434" y1="356.9999" y2="356.9999"/><rect fill="#EEEEEE" height="23.6" style="stroke:#000000;stroke-width:2.0;" width="62" x="686" y="343.1999"/><text fill="#000000" font-family="Courier" font-size="13" font-weight="bold" lengthAdjust="spacing" textLength="40" x="692" y="359.1859">Start</text><polygon fill="#181818" points="430,394.4,440,398.4,430,402.4,434,398.4" style="stroke:#181818;stroke-width:1.0;"/><line style="stroke:#181818;stroke-width:2.0;" x1="52" x2="436" y1="398.4" y2="398.4"/><text fill="#000000" font-family="Courier" font-size="13" lengthAdjust="spacing" textLength="208" x="59" y="392.838">Notify: Game State Changed</text><polygon fill="#181818" points="684,424,694,428,684,432,688,428" style="stroke:#181818;stroke-width:1.0;"/><line style="stroke:#181818;stroke-width:2.0;" x1="52" x2="690" y1="428" y2="428"/><text fill="#000000" font-family="Courier" font-size="13" lengthAdjust="spacing" textLength="208" x="59" y="422.438">Notify: Game State Changed</text><line style="stroke:#181818;stroke-width:2.0;" x1="442" x2="484" y1="457.6" y2="457.6"/><line style="stroke:#181818;stroke-width:2.0;" x1="484" x2="484" y1="457.6" y2="470.6"/><line style="stroke:#181818;stroke-width:2.0;" x1="443" x2="484" y1="470.6" y2="470.6"/><polygon fill="#181818" points="453,466.6,443,470.6,453,474.6,449,470.6" style="stroke:#181818;stroke-width:1.0;"/><text fill="#000000" font-family="Courier" font-size="13" lengthAdjust="spacing" textLength="96" x="449" y="452.038">Fade In View</text><line style="stroke:#181818;stroke-width:2.0;" x1="696" x2="738" y1="500.2" y2="500.2"/><line style="stroke:#181818;stroke-width:2.0;" x1="738" x2="738" y1="500.2" y2="513.2"/><line style="stroke:#181818;stroke-width:2.0;" x1="697" x2="738" y1="513.2" y2="513.2"/><polygon fill="#181818" points="707,509.2,697,513.2,707,517.2,703,513.2" style="stroke:#181818;stroke-width:1.0;"/><text fill="#000000" font-family="Courier" font-size="13" lengthAdjust="spacing" textLength="104" x="703" y="494.638">Fade In Music</text><rect fill="#EEEEEE" height="3" style="stroke:#EEEEEE;stroke-width:1.0;" width="1434" x="0" y="534.2"/><line style="stroke:#000000;stroke-width:1.0;" x1="0" x2="1434" y1="534.2" y2="534.2"/><line style="stroke:#000000;stroke-width:1.0;" x1="0" x2="1434" y1="537.2" y2="537.2"/><line style="stroke:#181818;stroke-width:2.0;" x1="822" x2="864" y1="570.8" y2="570.8"/><line style="stroke:#181818;stroke-width:2.0;" x1="864" x2="864" y1="570.8" y2="583.8"/><line style="stroke:#181818;stroke-width:2.0;" x1="823" x2="864" y1="583.8" y2="583.8"/><polygon fill="#181818" points="833,579.8,823,583.8,833,587.8,829,583.8" style="stroke:#181818;stroke-width:1.0;"/><text fill="#000000" font-family="Courier" font-size="13" lengthAdjust="spacing" textLength="248" x="829" y="565.238">Listen for CometHitRacket Event</text><polygon fill="#181818" points="63,609.4,53,613.4,63,617.4,59,613.4" style="stroke:#181818;stroke-width:1.0;"/><line style="stroke:#181818;stroke-width:2.0;" x1="57" x2="821" y1="613.4" y2="613.4"/><text fill="#000000" font-family="Courier" font-size="13" lengthAdjust="spacing" textLength="288" x="69" y="607.838">Set State: Play (On First Comet Hit)</text><rect fill="#EEEEEE" height="3" style="stroke:#EEEEEE;stroke-width:1.0;" width="1434" x="0" y="642.2"/><line style="stroke:#000000;stroke-width:1.0;" x1="0" x2="1434" y1="642.2" y2="642.2"/><line style="stroke:#000000;stroke-width:1.0;" x1="0" x2="1434" y1="645.2" y2="645.2"/><rect fill="#EEEEEE" height="23.6" style="stroke:#000000;stroke-width:2.0;" width="54" x="690" y="631.4"/><text fill="#000000" font-family="Courier" font-size="13" font-weight="bold" lengthAdjust="spacing" textLength="32" x="696" y="647.386">Play</text><polygon fill="#181818" points="810,682.6001,820,686.6001,810,690.6001,814,686.6001" style="stroke:#181818;stroke-width:1.0;"/><line style="stroke:#181818;stroke-width:2.0;" x1="52" x2="816" y1="686.6001" y2="686.6001"/><text fill="#000000" font-family="Courier" font-size="13" lengthAdjust="spacing" textLength="208" x="59" y="681.0381">Notify: Game State Changed</text><polygon fill="#181818" points="1072,712.2001,1082,716.2001,1072,720.2001,1076,716.2001" style="stroke:#181818;stroke-width:1.0;"/><line style="stroke:#181818;stroke-width:2.0;" x1="52" x2="1078" y1="716.2001" y2="716.2001"/><text fill="#000000" font-family="Courier" font-size="13" lengthAdjust="spacing" textLength="208" x="59" y="710.6381">Notify: Game State Changed</text><polygon fill="#181818" points="1200,741.8001,1210,745.8001,1200,749.8001,1204,745.8001" style="stroke:#181818;stroke-width:1.0;"/><line style="stroke:#181818;stroke-width:2.0;" x1="52" x2="1206" y1="745.8001" y2="745.8001"/><text fill="#000000" font-family="Courier" font-size="13" lengthAdjust="spacing" textLength="208" x="59" y="740.2381">Notify: Game State Changed</text><line style="stroke:#181818;stroke-width:2.0;" x1="822" x2="864" y1="775.4001" y2="775.4001"/><line style="stroke:#181818;stroke-width:2.0;" x1="864" x2="864" y1="775.4001" y2="788.4001"/><line style="stroke:#181818;stroke-width:2.0;" x1="823" x2="864" y1="788.4001" y2="788.4001"/><polygon fill="#181818" points="833,784.4001,823,788.4001,833,792.4001,829,788.4001" style="stroke:#181818;stroke-width:1.0;"/><text fill="#000000" font-family="Courier" font-size="13" lengthAdjust="spacing" textLength="176" x="829" y="769.8381">Spawn Comets Regularly</text><line style="stroke:#181818;stroke-width:2.0;" x1="1084" x2="1126" y1="818.0001" y2="818.0001"/><line style="stroke:#181818;stroke-width:2.0;" x1="1126" x2="1126" y1="818.0001" y2="831.0001"/><line style="stroke:#181818;stroke-width:2.0;" x1="1085" x2="1126" y1="831.0001" y2="831.0001"/><polygon fill="#181818" points="1095,827.0001,1085,831.0001,1095,835.0001,1091,831.0001" style="stroke:#181818;stroke-width:1.0;"/><text fill="#000000" font-family="Courier" font-size="13" lengthAdjust="spacing" textLength="88" x="1091" y="812.4381">Start Timer</text><line style="stroke:#181818;stroke-width:2.0;" x1="1212" x2="1254" y1="860.6001" y2="860.6001"/><line style="stroke:#181818;stroke-width:2.0;" x1="1254" x2="1254" y1="860.6001" y2="873.6001"/><line style="stroke:#181818;stroke-width:2.0;" x1="1213" x2="1254" y1="873.6001" y2="873.6001"/><polygon fill="#181818" points="1223,869.6001,1213,873.6001,1223,877.6001,1219,873.6001" style="stroke:#181818;stroke-width:1.0;"/><text fill="#000000" font-family="Courier" font-size="13" lengthAdjust="spacing" textLength="208" x="1219" y="855.0381">Spawn Spaceships Regularly</text><rect fill="#EEEEEE" height="3" style="stroke:#EEEEEE;stroke-width:1.0;" width="1434" x="0" y="894.6001"/><line style="stroke:#000000;stroke-width:1.0;" x1="0" x2="1434" y1="894.6001" y2="894.6001"/><line style="stroke:#000000;stroke-width:1.0;" x1="0" x2="1434" y1="897.6001" y2="897.6001"/><polygon fill="#181818" points="63,927.2001,53,931.2001,63,935.2001,59,931.2001" style="stroke:#181818;stroke-width:1.0;"/><line style="stroke:#181818;stroke-width:2.0;" x1="57" x2="1083" y1="931.2001" y2="931.2001"/><text fill="#000000" font-family="Courier" font-size="13" lengthAdjust="spacing" textLength="240" x="69" y="925.6381">Set State: End (Timer Run Out)</text><rect fill="#EEEEEE" height="3" style="stroke:#EEEEEE;stroke-width:1.0;" width="1434" x="0" y="960.0001"/><line style="stroke:#000000;stroke-width:1.0;" x1="0" x2="1434" y1="960.0001" y2="960.0001"/><line style="stroke:#000000;stroke-width:1.0;" x1="0" x2="1434" y1="963.0001" y2="963.0001"/><rect fill="#EEEEEE" height="23.6" style="stroke:#000000;stroke-width:2.0;" width="46" x="694" y="949.2001"/><text fill="#000000" font-family="Courier" font-size="13" font-weight="bold" lengthAdjust="spacing" textLength="24" x="700" y="965.1862">End</text><polygon fill="#181818" points="430,1000.4002,440,1004.4002,430,1008.4002,434,1004.4002" style="stroke:#181818;stroke-width:1.0;"/><line style="stroke:#181818;stroke-width:2.0;" x1="52" x2="436" y1="1004.4002" y2="1004.4002"/><text fill="#000000" font-family="Courier" font-size="13" lengthAdjust="spacing" textLength="208" x="59" y="998.8382">Notify: Game State Changed</text><polygon fill="#181818" points="684,1030.0002,694,1034.0002,684,1038.0002,688,1034.0002" style="stroke:#181818;stroke-width:1.0;"/><line style="stroke:#181818;stroke-width:2.0;" x1="52" x2="690" y1="1034.0002" y2="1034.0002"/><text fill="#000000" font-family="Courier" font-size="13" lengthAdjust="spacing" textLength="208" x="59" y="1028.4382">Notify: Game State Changed</text><line style="stroke:#181818;stroke-width:2.0;" x1="442" x2="484" y1="1063.6002" y2="1063.6002"/><line style="stroke:#181818;stroke-width:2.0;" x1="484" x2="484" y1="1063.6002" y2="1076.6002"/><line style="stroke:#181818;stroke-width:2.0;" x1="443" x2="484" y1="1076.6002" y2="1076.6002"/><polygon fill="#181818" points="453,1072.6002,443,1076.6002,453,1080.6002,449,1076.6002" style="stroke:#181818;stroke-width:1.0;"/><text fill="#000000" font-family="Courier" font-size="13" lengthAdjust="spacing" textLength="240" x="449" y="1058.0382">Fade Out View and Reload Level</text><line style="stroke:#181818;stroke-width:2.0;" x1="696" x2="738" y1="1106.2002" y2="1106.2002"/><line style="stroke:#181818;stroke-width:2.0;" x1="738" x2="738" y1="1106.2002" y2="1119.2002"/><line style="stroke:#181818;stroke-width:2.0;" x1="697" x2="738" y1="1119.2002" y2="1119.2002"/><polygon fill="#181818" points="707,1115.2002,697,1119.2002,707,1123.2002,703,1119.2002" style="stroke:#181818;stroke-width:1.0;"/><text fill="#000000" font-family="Courier" font-size="13" lengthAdjust="spacing" textLength="112" x="703" y="1100.6382">Fade Out Music</text><!--SRC=[pPCzRzim48Pt_ee3kgH3bnRkOC05R4Lg2zX9O0MTkZ3IIIPCaIf9nVM_Bqb9CVKH8zaAmx1vlFVkkG_g8nCrLRI29veTIoKRaKUIImKVuZZUt4P4ltXe_DEWo72jb3mz7bXs5AWrV9vnsRB2VWLkfCfHTG4NNnVhnLp01weCorXDXNc_O8oTV76V6T7Emj8IrvoLea9XW6DX0hyS2zfmaqXXxcY54Cb6CLI466OumdTdIxWyGTe5X5j6IwiaX6R6fdOUEofi3aNg2o6an_EJ_BkLD1zTRBY5buqP67UDPjbSc4XMQDAQdiGuVYQLxJHL-T1SqmprWTMzXWI0yEbRoBk4r5YfD_qMAHftDhW4Hzto4x9Q1KTOhIO1mqANS2SDAyxBjd4-74G7AahCIUWu5RfVs5EHowgxcGY6w1TSNuKdRUkPWUoRVXLmf0bdSbNN1nycIYms_1JmY-69XB6ciNjNR_M5k1B2qJjDUBRzOjgWWCAkeB_umSpUfhPTYP_jda_KhpNlWTCptDmBI9ZItRw13VRHS_ZRcNuEMTxUqylMlairMkghskjjytzQcuOzbWsdYf_9XMjCsQxK8wliMnfppBErALxiOPf-jCDqhuqc5ZdS-ComRmJSDzrGdFq_sd7BvPSSxEErjNBtaBVuZFmjM-_4tlmF]--></g></svg>