<?xml version="1.0" encoding="windows-1252" standalone="no"?>
<svg xmlns="http://www.w3.org/2000/svg" xmlns:xlink="http://www.w3.org/1999/xlink" contentStyleType="text/css" height="537px" preserveAspectRatio="none" style="width:559px;height:537px;background:#EEEBDC;" version="1.1" viewBox="0 0 559 537" width="559px" zoomAndPan="magnify"><link xmlns="" type="text/css" id="dark-mode" rel="stylesheet" href=""/><style xmlns="" type="text/css" id="dark-mode-custom-style"/><defs/><g><rect fill="#EEEBDC" height="537" style="stroke:none;stroke-width:1.0;" width="559" x="0" y="0"/><text fill="#000000" font-family="Courier" font-size="14" font-weight="bold" lengthAdjust="spacing" textLength="264" x="143.5" y="27.9079">Hit Event System Sequence Diagram</text><rect fill="#FFFFFF" height="35.6" style="stroke:#565A5C;stroke-width:1.0;" width="10" x="173" y="237.3999"/><line style="stroke:#565A5C;stroke-width:0.5;stroke-dasharray:5.0,5.0;" x1="28" x2="28" y1="119.5999" y2="456.4"/><line style="stroke:#565A5C;stroke-width:0.5;stroke-dasharray:5.0,5.0;" x1="178" x2="178" y1="119.5999" y2="456.4"/><line style="stroke:#565A5C;stroke-width:0.5;stroke-dasharray:5.0,5.0;" x1="418" x2="418" y1="119.5999" y2="456.4"/><text fill="#000000" font-family="Courier" font-size="14" lengthAdjust="spacing" textLength="40" x="5" y="115.7639">Comet</text><ellipse cx="28" cy="51.2999" fill="#E2E2F0" rx="8" ry="8" style="stroke:#181818;stroke-width:0.5;"/><path d="M28,59.2999 L28,86.2999 M15,67.2999 L41,67.2999 M28,86.2999 L15,101.2999 M28,86.2999 L41,101.2999 " fill="none" style="stroke:#181818;stroke-width:0.5;"/><text fill="#000000" font-family="Courier" font-size="14" lengthAdjust="spacing" textLength="40" x="5" y="468.3639">Comet</text><ellipse cx="28" cy="480.6999" fill="#E2E2F0" rx="8" ry="8" style="stroke:#181818;stroke-width:0.5;"/><path d="M28,488.6999 L28,515.6999 M15,496.6999 L41,496.6999 M28,515.6999 L15,530.6999 M28,515.6999 L41,530.6999 " fill="none" style="stroke:#181818;stroke-width:0.5;"/><rect fill="#F3F3F3" height="30.7999" rx="2.5" ry="2.5" style="stroke:#565A5C;stroke-width:0.5;" width="110" x="123" y="87.7999"/><text fill="#000000" font-family="Courier" font-size="14" lengthAdjust="spacing" textLength="96" x="130" y="107.7639">CometSpawner</text><rect fill="#F3F3F3" height="30.7999" rx="2.5" ry="2.5" style="stroke:#565A5C;stroke-width:0.5;" width="110" x="123" y="455.4"/><text fill="#000000" font-family="Courier" font-size="14" lengthAdjust="spacing" textLength="96" x="130" y="475.3639">CometSpawner</text><rect fill="#F3F3F3" height="30.7999" rx="2.5" ry="2.5" style="stroke:#565A5C;stroke-width:0.5;" width="94" x="371" y="87.7999"/><text fill="#000000" font-family="Courier" font-size="14" lengthAdjust="spacing" textLength="80" x="378" y="107.7639">ScoreBoard</text><rect fill="#F3F3F3" height="30.7999" rx="2.5" ry="2.5" style="stroke:#565A5C;stroke-width:0.5;" width="94" x="371" y="455.4"/><text fill="#000000" font-family="Courier" font-size="14" lengthAdjust="spacing" textLength="80" x="378" y="475.3639">ScoreBoard</text><rect fill="#FFFFFF" height="35.6" style="stroke:#565A5C;stroke-width:1.0;" width="10" x="173" y="237.3999"/><rect fill="#EEEEEE" height="3" style="stroke:#EEEEEE;stroke-width:1.0;" width="552" x="0" y="150.3999"/><line style="stroke:#000000;stroke-width:1.0;" x1="0" x2="552" y1="150.3999" y2="150.3999"/><line style="stroke:#000000;stroke-width:1.0;" x1="0" x2="552" y1="153.3999" y2="153.3999"/><rect fill="#EEEEEE" height="23.6" style="stroke:#000000;stroke-width:2.0;" width="182" x="185" y="139.5999"/><text fill="#000000" font-family="Courier" font-size="13" font-weight="bold" lengthAdjust="spacing" textLength="160" x="191" y="155.5859">CometHitRacket Event</text><line style="stroke:#181818;stroke-width:2.0;" x1="28" x2="70" y1="194.7999" y2="194.7999"/><line style="stroke:#181818;stroke-width:2.0;" x1="70" x2="70" y1="194.7999" y2="207.7999"/><line style="stroke:#181818;stroke-width:2.0;" x1="29" x2="70" y1="207.7999" y2="207.7999"/><polygon fill="#181818" points="39,203.7999,29,207.7999,39,211.7999,35,207.7999" style="stroke:#181818;stroke-width:1.0;"/><text fill="#000000" font-family="Courier" font-size="13" lengthAdjust="spacing" textLength="136" x="35" y="189.2379">Comet hits Racket</text><polygon fill="#181818" points="161,233.3999,171,237.3999,161,241.3999,165,237.3999" style="stroke:#181818;stroke-width:1.0;"/><line style="stroke:#181818;stroke-width:2.0;" x1="28" x2="167" y1="237.3999" y2="237.3999"/><text fill="#000000" font-family="Courier" font-size="13" lengthAdjust="spacing" textLength="112" x="35" y="231.8379">CometHitRacket</text><line style="stroke:#181818;stroke-width:2.0;" x1="183" x2="225" y1="271.9999" y2="271.9999"/><line style="stroke:#181818;stroke-width:2.0;" x1="225" x2="225" y1="271.9999" y2="284.9999"/><line style="stroke:#181818;stroke-width:2.0;" x1="178" x2="225" y1="284.9999" y2="284.9999"/><polygon fill="#181818" points="188,280.9999,178,284.9999,188,288.9999,184,284.9999" style="stroke:#181818;stroke-width:1.0;"/><text fill="#000000" font-family="Courier" font-size="13" lengthAdjust="spacing" textLength="216" x="190" y="266.4379">Spawn new Comet after delay</text><rect fill="#EEEEEE" height="3" style="stroke:#EEEEEE;stroke-width:1.0;" width="552" x="0" y="308.7999"/><line style="stroke:#000000;stroke-width:1.0;" x1="0" x2="552" y1="308.7999" y2="308.7999"/><line style="stroke:#000000;stroke-width:1.0;" x1="0" x2="552" y1="311.7999" y2="311.7999"/><rect fill="#EEEEEE" height="23.6" style="stroke:#000000;stroke-width:2.0;" width="174" x="189" y="297.9999"/><text fill="#000000" font-family="Courier" font-size="13" font-weight="bold" lengthAdjust="spacing" textLength="152" x="195" y="313.9859">CometHitEnemy Event</text><line style="stroke:#181818;stroke-width:2.0;" x1="28" x2="70" y1="353.1999" y2="353.1999"/><line style="stroke:#181818;stroke-width:2.0;" x1="70" x2="70" y1="353.1999" y2="366.1999"/><line style="stroke:#181818;stroke-width:2.0;" x1="29" x2="70" y1="366.1999" y2="366.1999"/><polygon fill="#181818" points="39,362.1999,29,366.1999,39,370.1999,35,366.1999" style="stroke:#181818;stroke-width:1.0;"/><text fill="#000000" font-family="Courier" font-size="13" lengthAdjust="spacing" textLength="128" x="35" y="347.6379">Comet hits Enemy</text><polygon fill="#181818" points="406,391.7999,416,395.7999,406,399.7999,410,395.7999" style="stroke:#181818;stroke-width:1.0;"/><line style="stroke:#181818;stroke-width:2.0;" x1="28" x2="412" y1="395.7999" y2="395.7999"/><text fill="#000000" font-family="Courier" font-size="13" lengthAdjust="spacing" textLength="104" x="35" y="390.2379">CometHitEnemy</text><line style="stroke:#181818;stroke-width:2.0;" x1="418" x2="460" y1="425.4" y2="425.4"/><line style="stroke:#181818;stroke-width:2.0;" x1="460" x2="460" y1="425.4" y2="438.4"/><line style="stroke:#181818;stroke-width:2.0;" x1="419" x2="460" y1="438.4" y2="438.4"/><polygon fill="#181818" points="429,434.4,419,438.4,429,442.4,425,438.4" style="stroke:#181818;stroke-width:1.0;"/><text fill="#000000" font-family="Courier" font-size="13" lengthAdjust="spacing" textLength="120" x="425" y="419.838">Increment score</text><!--SRC=[bP7FJiCm3CRlUGfBdBc0nW6fI5lN2IH0YF829dMxQ6rI77VJtfxqpxPkz30KHOcSdpz_Tlp6s1ePA_X6lIdODJQBNUaORf8aMInZvO-4fv-6hAOvizjzhOtUMF8UxYQGLvE7RMdXE2CU16SFi_biIl03MOmsDLhvVyAbxTLzkoQIte9PB6XUci9MP0LAocN4PPHZKyhAMNd7YY1s3HjYfSH8IV1i199jcvVklL05wQ0BIuD5450AjGG7iQj8bAfF7ljGMkFE1htnGweTXo4XPqf5KS-5Gf-XAJgKYoBLnU7sgGVWSJZNHZpqx0Kor3gGHydMejcYqBcbivo_6jqDBEs6kfXBY6TKubvbD2qvRYUnLEslwwP3JyHfFgDMUcRqT0c-MCtKVR5lmxy0]--></g></svg>