<?xml version="1.0" encoding="windows-1252" standalone="no"?>
<svg xmlns="http://www.w3.org/2000/svg" xmlns:xlink="http://www.w3.org/1999/xlink" contentStyleType="text/css" height="719px" preserveAspectRatio="none" style="width:534px;height:719px;background:#EEEBDC;" version="1.1" viewBox="0 0 534 719" width="534px" zoomAndPan="magnify"><link xmlns="" type="text/css" id="dark-mode" rel="stylesheet" href=""/><style xmlns="" type="text/css" id="dark-mode-custom-style"/><defs/><g><rect fill="#EEEBDC" height="719" style="stroke:none;stroke-width:1.0;" width="534" x="0" y="0"/><text fill="#000000" font-family="Courier" font-size="14" font-weight="bold" lengthAdjust="spacing" textLength="328" x="99" y="27.9079">Enemy Interaction System Sequence Diagram</text><rect fill="#FFFFFF" height="29.6" style="stroke:#565A5C;stroke-width:1.0;" width="10" x="374" y="194.7999"/><rect fill="#FFFFFF" height="145.4001" style="stroke:#565A5C;stroke-width:1.0;" width="10" x="374" y="327.1999"/><rect fill="none" height="89.8" style="stroke:#000000;stroke-width:1.5;" width="452" x="10" y="531.2"/><line style="stroke:#565A5C;stroke-width:0.5;stroke-dasharray:5.0,5.0;" x1="71" x2="71" y1="119.5999" y2="638"/><line style="stroke:#565A5C;stroke-width:0.5;stroke-dasharray:5.0,5.0;" x1="271" x2="271" y1="119.5999" y2="638"/><line style="stroke:#565A5C;stroke-width:0.5;stroke-dasharray:5.0,5.0;" x1="379" x2="379" y1="119.5999" y2="638"/><line style="stroke:#565A5C;stroke-width:0.5;stroke-dasharray:5.0,5.0;" x1="499" x2="499" y1="119.5999" y2="638"/><rect fill="#F3F3F3" height="30.7999" rx="2.5" ry="2.5" style="stroke:#565A5C;stroke-width:0.5;" width="102" x="20" y="87.7999"/><text fill="#000000" font-family="Courier" font-size="14" lengthAdjust="spacing" textLength="88" x="27" y="107.7639">PoolManager</text><rect fill="#F3F3F3" height="30.7999" rx="2.5" ry="2.5" style="stroke:#565A5C;stroke-width:0.5;" width="102" x="20" y="637"/><text fill="#000000" font-family="Courier" font-size="14" lengthAdjust="spacing" textLength="88" x="27" y="656.964">PoolManager</text><rect fill="#F3F3F3" height="30.7999" rx="2.5" ry="2.5" style="stroke:#565A5C;stroke-width:0.5;" width="142" x="200" y="87.7999"/><text fill="#000000" font-family="Courier" font-size="14" lengthAdjust="spacing" textLength="128" x="207" y="107.7639">SpaceshipSpawner</text><rect fill="#F3F3F3" height="30.7999" rx="2.5" ry="2.5" style="stroke:#565A5C;stroke-width:0.5;" width="142" x="200" y="637"/><text fill="#000000" font-family="Courier" font-size="14" lengthAdjust="spacing" textLength="128" x="207" y="656.964">SpaceshipSpawner</text><rect fill="#F3F3F3" height="30.7999" rx="2.5" ry="2.5" style="stroke:#565A5C;stroke-width:0.5;" width="54" x="352" y="87.7999"/><text fill="#000000" font-family="Courier" font-size="14" lengthAdjust="spacing" textLength="40" x="359" y="107.7639">Enemy</text><rect fill="#F3F3F3" height="30.7999" rx="2.5" ry="2.5" style="stroke:#565A5C;stroke-width:0.5;" width="54" x="352" y="637"/><text fill="#000000" font-family="Courier" font-size="14" lengthAdjust="spacing" textLength="40" x="359" y="656.964">Enemy</text><text fill="#000000" font-family="Courier" font-size="14" lengthAdjust="spacing" textLength="40" x="476" y="115.7639">Comet</text><ellipse cx="499" cy="51.2999" fill="#E2E2F0" rx="8" ry="8" style="stroke:#181818;stroke-width:0.5;"/><path d="M499,59.2999 L499,86.2999 M486,67.2999 L512,67.2999 M499,86.2999 L486,101.2999 M499,86.2999 L512,101.2999 " fill="none" style="stroke:#181818;stroke-width:0.5;"/><text fill="#000000" font-family="Courier" font-size="14" lengthAdjust="spacing" textLength="40" x="476" y="649.964">Comet</text><ellipse cx="499" cy="662.3" fill="#E2E2F0" rx="8" ry="8" style="stroke:#181818;stroke-width:0.5;"/><path d="M499,670.3 L499,697.3 M486,678.3 L512,678.3 M499,697.3 L486,712.3 M499,697.3 L512,712.3 " fill="none" style="stroke:#181818;stroke-width:0.5;"/><rect fill="#FFFFFF" height="29.6" style="stroke:#565A5C;stroke-width:1.0;" width="10" x="374" y="194.7999"/><rect fill="#FFFFFF" height="145.4001" style="stroke:#565A5C;stroke-width:1.0;" width="10" x="374" y="327.1999"/><rect fill="#EEEEEE" height="3" style="stroke:#EEEEEE;stroke-width:1.0;" width="527" x="0" y="150.3999"/><line style="stroke:#000000;stroke-width:1.0;" x1="0" x2="527" y1="150.3999" y2="150.3999"/><line style="stroke:#000000;stroke-width:1.0;" x1="0" x2="527" y1="153.3999" y2="153.3999"/><rect fill="#EEEEEE" height="23.6" style="stroke:#000000;stroke-width:2.0;" width="134" x="196.5" y="139.5999"/><text fill="#000000" font-family="Courier" font-size="13" font-weight="bold" lengthAdjust="spacing" textLength="112" x="202.5" y="155.5859">Initialization</text><polygon fill="#181818" points="362,190.7999,372,194.7999,362,198.7999,366,194.7999" style="stroke:#181818;stroke-width:1.0;"/><line style="stroke:#181818;stroke-width:2.0;" x1="71" x2="368" y1="194.7999" y2="194.7999"/><text fill="#000000" font-family="Courier" font-size="13" lengthAdjust="spacing" textLength="128" x="78" y="189.2379">Create instances</text><polygon fill="#181818" points="82,220.3999,72,224.3999,82,228.3999,78,224.3999" style="stroke:#181818;stroke-width:1.0;"/><line style="stroke:#181818;stroke-width:2.0;stroke-dasharray:2.0,2.0;" x1="76" x2="378" y1="224.3999" y2="224.3999"/><text fill="#000000" font-family="Courier" font-size="13" lengthAdjust="spacing" textLength="136" x="88" y="218.8379">Store as disabled</text><rect fill="#EEEEEE" height="3" style="stroke:#EEEEEE;stroke-width:1.0;" width="527" x="0" y="253.1999"/><line style="stroke:#000000;stroke-width:1.0;" x1="0" x2="527" y1="253.1999" y2="253.1999"/><line style="stroke:#000000;stroke-width:1.0;" x1="0" x2="527" y1="256.1999" y2="256.1999"/><rect fill="#EEEEEE" height="23.6" style="stroke:#000000;stroke-width:2.0;" width="110" x="208.5" y="242.3999"/><text fill="#000000" font-family="Courier" font-size="13" font-weight="bold" lengthAdjust="spacing" textLength="88" x="214.5" y="258.3859">Spawn Enemy</text><polygon fill="#181818" points="82,293.5999,72,297.5999,82,301.5999,78,297.5999" style="stroke:#181818;stroke-width:1.0;"/><line style="stroke:#181818;stroke-width:2.0;" x1="76" x2="270" y1="297.5999" y2="297.5999"/><text fill="#000000" font-family="Courier" font-size="13" lengthAdjust="spacing" textLength="176" x="88" y="292.0379">Request Enemy instance</text><polygon fill="#181818" points="362,323.1999,372,327.1999,362,331.1999,366,327.1999" style="stroke:#181818;stroke-width:1.0;"/><line style="stroke:#181818;stroke-width:2.0;" x1="71" x2="368" y1="327.1999" y2="327.1999"/><text fill="#000000" font-family="Courier" font-size="13" lengthAdjust="spacing" textLength="64" x="78" y="321.6379">Activate</text><line style="stroke:#181818;stroke-width:2.0;" x1="384" x2="426" y1="356.7999" y2="356.7999"/><line style="stroke:#181818;stroke-width:2.0;" x1="426" x2="426" y1="356.7999" y2="369.7999"/><line style="stroke:#181818;stroke-width:2.0;" x1="385" x2="426" y1="369.7999" y2="369.7999"/><polygon fill="#181818" points="395,365.7999,385,369.7999,395,373.7999,391,369.7999" style="stroke:#181818;stroke-width:1.0;"/><text fill="#000000" font-family="Courier" font-size="13" lengthAdjust="spacing" textLength="96" x="391" y="351.2379">Start moving</text><rect fill="#EEEEEE" height="3" style="stroke:#EEEEEE;stroke-width:1.0;" width="527" x="0" y="398.6"/><line style="stroke:#000000;stroke-width:1.0;" x1="0" x2="527" y1="398.6" y2="398.6"/><line style="stroke:#000000;stroke-width:1.0;" x1="0" x2="527" y1="401.6" y2="401.6"/><rect fill="#EEEEEE" height="23.6" style="stroke:#000000;stroke-width:2.0;" width="158" x="184.5" y="387.7999"/><text fill="#000000" font-family="Courier" font-size="13" font-weight="bold" lengthAdjust="spacing" textLength="136" x="190.5" y="403.786">Case 1: Comet Hit</text><polygon fill="#181818" points="395,439,385,443,395,447,391,443" style="stroke:#181818;stroke-width:1.0;"/><line style="stroke:#181818;stroke-width:2.0;" x1="389" x2="498" y1="443" y2="443"/><text fill="#000000" font-family="Courier" font-size="13" lengthAdjust="spacing" textLength="80" x="401" y="437.438">Hits Enemy</text><polygon fill="#181818" points="82,468.6,72,472.6,82,476.6,78,472.6" style="stroke:#181818;stroke-width:1.0;"/><line style="stroke:#181818;stroke-width:2.0;" x1="76" x2="378" y1="472.6" y2="472.6"/><text fill="#000000" font-family="Courier" font-size="13" lengthAdjust="spacing" textLength="112" x="88" y="467.038">Return to pool</text><rect fill="#EEEEEE" height="3" style="stroke:#EEEEEE;stroke-width:1.0;" width="527" x="0" y="501.4"/><line style="stroke:#000000;stroke-width:1.0;" x1="0" x2="527" y1="501.4" y2="501.4"/><line style="stroke:#000000;stroke-width:1.0;" x1="0" x2="527" y1="504.4" y2="504.4"/><rect fill="#EEEEEE" height="23.6" style="stroke:#000000;stroke-width:2.0;" width="150" x="188.5" y="490.6"/><text fill="#000000" font-family="Courier" font-size="13" font-weight="bold" lengthAdjust="spacing" textLength="128" x="194.5" y="506.586">Case 2: Time Out</text><path d="M10,531.2 L79,531.2 L79,538.8 L69,548.8 L10,548.8 L10,531.2 " fill="#EEEEEE" style="stroke:#000000;stroke-width:1.5;"/><rect fill="none" height="89.8" style="stroke:#000000;stroke-width:1.5;" width="452" x="10" y="531.2"/><text fill="#000000" font-family="Courier" font-size="13" font-weight="bold" lengthAdjust="spacing" textLength="24" x="25" y="544.186">alt</text><text fill="#000000" font-family="Courier" font-size="11" font-weight="bold" lengthAdjust="spacing" textLength="98" x="94" y="543.3419">[No Comet Hit]</text><line style="stroke:#181818;stroke-width:2.0;" x1="379" x2="421" y1="570.4" y2="570.4"/><line style="stroke:#181818;stroke-width:2.0;" x1="421" x2="421" y1="570.4" y2="583.4"/><line style="stroke:#181818;stroke-width:2.0;" x1="380" x2="421" y1="583.4" y2="583.4"/><polygon fill="#181818" points="390,579.4,380,583.4,390,587.4,386,583.4" style="stroke:#181818;stroke-width:1.0;"/><text fill="#000000" font-family="Courier" font-size="13" lengthAdjust="spacing" textLength="64" x="386" y="564.838">Time out</text><polygon fill="#181818" points="82,609,72,613,82,617,78,613" style="stroke:#181818;stroke-width:1.0;"/><line style="stroke:#181818;stroke-width:2.0;" x1="76" x2="378" y1="613" y2="613"/><text fill="#000000" font-family="Courier" font-size="13" lengthAdjust="spacing" textLength="112" x="88" y="607.438">Return to pool</text><!--SRC=[bPBTIiD048Nlzoa6lFP2fLuKAjHOKV0FumkCoJGEtSp6tOcYJ-ya3RQcLJ0XaCoUEUUR8Md5qc346fwnM5Knj59cmOS81ul5ulmYS-bRaUYr9Ibe7cDuVthXOYMK4XplaTpmqXwXyn1BYeFXv7God-mpVC2eN723elzl66DVddJtdgPRWyMAvfuhgKaKF2rrIrVI4bklbq7q3ck2BBIHAJgdh9vW8LH_mBKeHIoKWq3-aPHgo0T_k62ipCYvPeC73o7uMnGBZZ_gUOC5fHTkxELTHeTzbhCO6oWBDQbpivbbip9w_iG-VZPpM-PmU3OWJY6BX4h0aXGDB7LE_DQLriPhtQ5rR1jC8RSy0anGSi9dJwKhQTJQSVJ4GvX1Z2U17T_7RaDf6EiRwpVw-P3u2_L6cAkj3EhmnbBrO1acWgFfUcLmnThXhJ-ssgoUnfPZNcsZW0PehBv_2NtMyHIUs7wL-xQFGgzm5pRn3kpQmUuxGZiw_PEWK-vGa9HV]--></g></svg>