<?xml version="1.0" encoding="windows-1252" standalone="no"?>
<svg xmlns="http://www.w3.org/2000/svg" xmlns:xlink="http://www.w3.org/1999/xlink" contentStyleType="text/css" height="1196px" preserveAspectRatio="none" style="width:501px;height:1196px;background:#FFFFFF;" version="1.1" viewBox="0 0 501 1196" width="501px" zoomAndPan="magnify"><link xmlns="" type="text/css" id="dark-mode" rel="stylesheet" href=""/><style xmlns="" type="text/css" id="dark-mode-custom-style"/><defs/><g><text fill="#000000" font-family="sans-serif" font-size="14" font-weight="bold" lengthAdjust="spacing" textLength="239" x="124.25" y="22.9951">GameManager State Diagram</text><ellipse cx="207.5" cy="53.2969" fill="#222222" rx="10" ry="10" style="stroke:#222222;stroke-width:1.0;"/><g id="InitialState"><rect fill="#F1F1F1" height="50.2656" rx="3.5" ry="3.5" style="stroke:#181818;stroke-width:0.5;" width="161" x="127" y="124.2969"/><line style="stroke:#181818;stroke-width:0.5;" x1="127" x2="288" y1="150.5938" y2="150.5938"/><text fill="#000000" font-family="sans-serif" font-size="14" lengthAdjust="spacing" textLength="80" x="167.5" y="142.292">InitialState</text><text fill="#000000" font-family="sans-serif" font-size="12" lengthAdjust="spacing" textLength="141" x="132" y="166.7324">Waiting for game setup</text></g><g id="PrepareGame"><rect fill="#F1F1F1" height="50.2656" rx="3.5" ry="3.5" style="stroke:#181818;stroke-width:0.5;" width="167" x="124" y="251.2969"/><line style="stroke:#181818;stroke-width:0.5;" x1="124" x2="291" y1="277.5938" y2="277.5938"/><text fill="#000000" font-family="sans-serif" font-size="14" lengthAdjust="spacing" textLength="99" x="158" y="269.292">PrepareGame</text><text fill="#000000" font-family="sans-serif" font-size="12" lengthAdjust="spacing" textLength="147" x="129" y="293.7324">Waiting for player action</text></g><g id="GameStart"><rect fill="#F1F1F1" height="50.2656" rx="3.5" ry="3.5" style="stroke:#181818;stroke-width:0.5;" width="168" x="123.5" y="378.2969"/><line style="stroke:#181818;stroke-width:0.5;" x1="123.5" x2="291.5" y1="404.5938" y2="404.5938"/><text fill="#000000" font-family="sans-serif" font-size="14" lengthAdjust="spacing" textLength="79" x="168" y="396.292">GameStart</text><text fill="#000000" font-family="sans-serif" font-size="12" lengthAdjust="spacing" textLength="148" x="128.5" y="420.7324">Starting game sequence</text></g><g id="FadeInView"><rect fill="#F1F1F1" height="50.2656" rx="3.5" ry="3.5" style="stroke:#181818;stroke-width:0.5;" width="101" x="157" y="505.2969"/><line style="stroke:#181818;stroke-width:0.5;" x1="157" x2="258" y1="531.5938" y2="531.5938"/><text fill="#000000" font-family="sans-serif" font-size="14" lengthAdjust="spacing" textLength="81" x="167" y="523.292">FadeInView</text><text fill="#000000" font-family="sans-serif" font-size="12" lengthAdjust="spacing" textLength="67" x="162" y="547.7324">UI fading in</text></g><g id="LoadEnvironment"><rect fill="#F1F1F1" height="50.2656" rx="3.5" ry="3.5" style="stroke:#181818;stroke-width:0.5;" width="194" x="110.5" y="632.2969"/><line style="stroke:#181818;stroke-width:0.5;" x1="110.5" x2="304.5" y1="658.5938" y2="658.5938"/><text fill="#000000" font-family="sans-serif" font-size="14" lengthAdjust="spacing" textLength="127" x="144" y="650.292">LoadEnvironment</text><text fill="#000000" font-family="sans-serif" font-size="12" lengthAdjust="spacing" textLength="174" x="115.5" y="674.7324">Preparing game environment</text></g><g id="ScoreboardLoading"><rect fill="#F1F1F1" height="50.2656" rx="3.5" ry="3.5" style="stroke:#181818;stroke-width:0.5;" width="159" x="128" y="759.2969"/><line style="stroke:#181818;stroke-width:0.5;" x1="128" x2="287" y1="785.5938" y2="785.5938"/><text fill="#000000" font-family="sans-serif" font-size="14" lengthAdjust="spacing" textLength="139" x="138" y="777.292">ScoreboardLoading</text><text fill="#000000" font-family="sans-serif" font-size="12" lengthAdjust="spacing" textLength="137" x="133" y="801.7324">Setting up UI elements</text></g><g id="FadeOutView"><rect fill="#F1F1F1" height="50.2656" rx="3.5" ry="3.5" style="stroke:#181818;stroke-width:0.5;" width="185" x="115" y="886.2969"/><line style="stroke:#181818;stroke-width:0.5;" x1="115" x2="300" y1="912.5938" y2="912.5938"/><text fill="#000000" font-family="sans-serif" font-size="14" lengthAdjust="spacing" textLength="94" x="160.5" y="904.292">FadeOutView</text><text fill="#000000" font-family="sans-serif" font-size="12" lengthAdjust="spacing" textLength="165" x="120" y="928.7324">UI fading back to gameplay</text></g><g id="Gameplay"><rect fill="#F1F1F1" height="50.2656" rx="3.5" ry="3.5" style="stroke:#181818;stroke-width:0.5;" width="116" x="149.5" y="1013.2969"/><line style="stroke:#181818;stroke-width:0.5;" x1="149.5" x2="265.5" y1="1039.5938" y2="1039.5938"/><text fill="#000000" font-family="sans-serif" font-size="14" lengthAdjust="spacing" textLength="72" x="171.5" y="1031.292">Gameplay</text><text fill="#000000" font-family="sans-serif" font-size="12" lengthAdjust="spacing" textLength="96" x="154.5" y="1055.7324">Main game loop</text></g><g id="EndState"><rect fill="#F1F1F1" height="50.2656" rx="3.5" ry="3.5" style="stroke:#181818;stroke-width:0.5;" width="169" x="7" y="1140.2969"/><line style="stroke:#181818;stroke-width:0.5;" x1="7" x2="176" y1="1166.5938" y2="1166.5938"/><text fill="#000000" font-family="sans-serif" font-size="14" lengthAdjust="spacing" textLength="67" x="58" y="1158.292">EndState</text><text fill="#000000" font-family="sans-serif" font-size="12" lengthAdjust="spacing" textLength="149" x="12" y="1182.7324">Game Over / Completion</text></g><g id="Pause"><rect fill="#F1F1F1" height="50.2656" rx="3.5" ry="3.5" style="stroke:#181818;stroke-width:0.5;" width="104" x="269.5" y="1140.2969"/><line style="stroke:#181818;stroke-width:0.5;" x1="269.5" x2="373.5" y1="1166.5938" y2="1166.5938"/><text fill="#000000" font-family="sans-serif" font-size="14" lengthAdjust="spacing" textLength="41" x="301" y="1158.292">Pause</text><text fill="#000000" font-family="sans-serif" font-size="12" lengthAdjust="spacing" textLength="84" x="274.5" y="1182.7324">Game paused</text></g><!--link *start* to InitialState--><g id="link_*start*_InitialState"><path d="M207.5,63.3069 C207.5,77.1869 207.5,98.2669 207.5,118.1369 " fill="none" id="*start*-to-InitialState" style="stroke:#454645;stroke-width:1.0;"/><polygon fill="#454645" points="207.5,124.1369,211.5,115.1369,207.5,119.1369,203.5,115.1369,207.5,124.1369" style="stroke:#454645;stroke-width:1.0;"/></g><!--link InitialState to PrepareGame--><g id="link_InitialState_PrepareGame"><path d="M207.5,174.3969 C207.5,196.5329 207.5,223.1579 207.5,245.2699 " fill="none" id="InitialState-to-PrepareGame" style="stroke:#454645;stroke-width:1.0;"/><polygon fill="#454645" points="207.5,251.2699,211.5,242.2699,207.5,246.2699,203.5,242.2699,207.5,251.2699" style="stroke:#454645;stroke-width:1.0;"/><text fill="#000000" font-family="sans-serif" font-size="13" lengthAdjust="spacing" textLength="94" x="208.5" y="217.3638">Initialize Game</text></g><!--link PrepareGame to GameStart--><g id="link_PrepareGame_GameStart"><path d="M207.5,301.3979 C207.5,323.5329 207.5,350.1579 207.5,372.2699 " fill="none" id="PrepareGame-to-GameStart" style="stroke:#454645;stroke-width:1.0;"/><polygon fill="#454645" points="207.5,378.2699,211.5,369.2699,207.5,373.2699,203.5,369.2699,207.5,378.2699" style="stroke:#454645;stroke-width:1.0;"/><text fill="#000000" font-family="sans-serif" font-size="13" lengthAdjust="spacing" textLength="130" x="208.5" y="344.3638">Player hits initial ball</text></g><!--link GameStart to FadeInView--><g id="link_GameStart_FadeInView"><path d="M207.5,428.3979 C207.5,450.5329 207.5,477.1579 207.5,499.2699 " fill="none" id="GameStart-to-FadeInView" style="stroke:#454645;stroke-width:1.0;"/><polygon fill="#454645" points="207.5,505.2699,211.5,496.2699,207.5,500.2699,203.5,496.2699,207.5,505.2699" style="stroke:#454645;stroke-width:1.0;"/><text fill="#000000" font-family="sans-serif" font-size="13" lengthAdjust="spacing" textLength="81" x="208.5" y="471.3638">Fade-in view</text></g><!--link FadeInView to LoadEnvironment--><g id="link_FadeInView_LoadEnvironment"><path d="M207.5,555.3979 C207.5,577.5329 207.5,604.1579 207.5,626.2699 " fill="none" id="FadeInView-to-LoadEnvironment" style="stroke:#454645;stroke-width:1.0;"/><polygon fill="#454645" points="207.5,632.2699,211.5,623.2699,207.5,627.2699,203.5,623.2699,207.5,632.2699" style="stroke:#454645;stroke-width:1.0;"/><text fill="#000000" font-family="sans-serif" font-size="13" lengthAdjust="spacing" textLength="81" x="208.5" y="598.3638">Load skybox</text></g><!--link LoadEnvironment to ScoreboardLoading--><g id="link_LoadEnvironment_ScoreboardLoading"><path d="M207.5,682.3979 C207.5,704.5329 207.5,731.1579 207.5,753.2699 " fill="none" id="LoadEnvironment-to-ScoreboardLoading" style="stroke:#454645;stroke-width:1.0;"/><polygon fill="#454645" points="207.5,759.2699,211.5,750.2699,207.5,754.2699,203.5,750.2699,207.5,759.2699" style="stroke:#454645;stroke-width:1.0;"/><text fill="#000000" font-family="sans-serif" font-size="13" lengthAdjust="spacing" textLength="107" x="208.5" y="725.3638">Load scoreboard</text></g><!--link ScoreboardLoading to FadeOutView--><g id="link_ScoreboardLoading_FadeOutView"><path d="M207.5,809.3979 C207.5,831.5329 207.5,858.1579 207.5,880.2699 " fill="none" id="ScoreboardLoading-to-FadeOutView" style="stroke:#454645;stroke-width:1.0;"/><polygon fill="#454645" points="207.5,886.2699,211.5,877.2699,207.5,881.2699,203.5,877.2699,207.5,886.2699" style="stroke:#454645;stroke-width:1.0;"/><text fill="#000000" font-family="sans-serif" font-size="13" lengthAdjust="spacing" textLength="91" x="208.5" y="852.3638">Fade-out view</text></g><!--link FadeOutView to Gameplay--><g id="link_FadeOutView_Gameplay"><path d="M207.5,936.3979 C207.5,958.5329 207.5,985.1579 207.5,1007.2699 " fill="none" id="FadeOutView-to-Gameplay" style="stroke:#454645;stroke-width:1.0;"/><polygon fill="#454645" points="207.5,1013.2699,211.5,1004.2699,207.5,1008.2699,203.5,1004.2699,207.5,1013.2699" style="stroke:#454645;stroke-width:1.0;"/><text fill="#000000" font-family="sans-serif" font-size="13" lengthAdjust="spacing" textLength="135" x="208.5" y="979.3638">Start main gameplay</text></g><!--link Gameplay to EndState--><g id="link_Gameplay_EndState"><path d="M152.012,1063.3279 C138.599,1071.2669 125.318,1081.2299 115.5,1093.2969 C104.5782,1106.7204 99.8292,1119.5029 96.5356,1134.3154 " fill="none" id="Gameplay-to-EndState" style="stroke:#454645;stroke-width:1.0;"/><polygon fill="#454645" points="95.2333,1140.1724,101.0914,1132.2551,96.3186,1135.2916,93.2821,1130.5187,95.2333,1140.1724" style="stroke:#454645;stroke-width:1.0;"/><text fill="#000000" font-family="sans-serif" font-size="13" lengthAdjust="spacing" textLength="74" x="116.5" y="1106.3638">Game ends</text></g><!--link Gameplay to Pause--><g id="link_Gameplay_Pause"><path d="M199.892,1063.4779 C196.795,1078.1309 195.723,1096.5792 204.5,1110.2969 C218.908,1132.8159 239.6461,1144.2439 263.7581,1151.9843 " fill="none" id="Gameplay-to-Pause" style="stroke:#454645;stroke-width:1.0;"/><polygon fill="#454645" points="269.471,1153.8183,262.1243,1147.2588,264.7103,1152.29,259.6791,1154.8759,269.471,1153.8183" style="stroke:#454645;stroke-width:1.0;"/><text fill="#000000" font-family="sans-serif" font-size="13" lengthAdjust="spacing" textLength="131" x="205.5" y="1106.3638">Player pauses game</text></g><!--link Pause to Gameplay--><g id="link_Pause_Gameplay"><path d="M337.863,1139.9894 C345.43,1125.4665 350.887,1107.2006 341.5,1093.2969 C324.518,1068.1439 299.4628,1056.2038 271.6328,1049.0238 " fill="none" id="Pause-to-Gameplay" style="stroke:#454645;stroke-width:1.0;"/><polygon fill="#454645" points="265.823,1047.5249,273.5384,1053.6464,270.6645,1048.7739,275.5369,1045.9,265.823,1047.5249" style="stroke:#454645;stroke-width:1.0;"/><text fill="#000000" font-family="sans-serif" font-size="13" lengthAdjust="spacing" textLength="147" x="346.5" y="1106.3638">Player unpauses game</text></g><!--SRC=[RP9DJyCm38Rl_XNcYZHnvy05nZI9QPKcu80ukAtNHKkJagORuzSJzsDDjvrQvtdzsd5yvtTSCXvKwiXu0A-yPbnGoIioLB33ZIVF-AAeS5G2VDr_uspsX4kZl2BTKeW3VCHF2g4fS6iT5i4AQ_PD1LEPc2IEAt8ivK9QZzLVrm1CQMnQQJg5rYZpoXgO2CLMVa8HvqDQqabtojUekWAOajOGYzglcFVT_ZHiCeP88xQlbFFIV2W-XXG9Pig4oV4H9kHzYLlAnKs5tY8a7c-MyhavA6TDoKPgomdM-rDgV-6QTbSxjyOZX2kr-6yowpYrv7AXaZTKE0EufTcmRmVGLD8_QnR76cveXqci6n-FmZP-dCN8nc6abEtHs_OUydumKGxF9cHu42mf3FYiZ_1g0AYjhM14OZCt-R28YsvcUGsNX-j3M8e7VBPbfRdReeb9GatDu_fK4jPjIHXGwzE2l3-xk4IVsvWe-ny0]--></g></svg>